<svg width="676" height="548" viewBox="0 0 676 548" fill="none" xmlns="http://www.w3.org/2000/svg">
<path d="M591.842 429.253L71.8425 414.353C47.6425 413.653 27.7425 395.153 25.3425 371.053L0.24249 123.053C-2.55751 94.953 19.2425 70.453 47.4425 70.053L626.242 62.053C655.443 61.653 678.342 87.153 674.742 116.153L641.042 387.053C637.943 411.653 616.642 429.953 591.842 429.253Z" fill="#ECFDF5"/>
<mask id="mask0" style="mask-type:alpha" maskUnits="userSpaceOnUse" x="0" y="62" width="676" height="368">
<path d="M591.842 429.253L71.8425 414.353C47.6425 413.653 27.7425 395.153 25.3425 371.053L0.24249 123.053C-2.55751 94.953 19.2425 70.453 47.4425 70.053L626.242 62.053C655.443 61.653 678.342 87.153 674.742 116.153L641.042 387.053C637.943 411.653 616.642 429.953 591.842 429.253Z" fill="#EAF9F3"/>
</mask>
<g mask="url(#mask0)">
<path d="M422.842 496.553H7.34247C-0.957532 496.553 -7.65753 489.853 -7.65753 481.553V245.853C-7.65753 237.553 -0.957532 230.853 7.34247 230.853H422.842C431.142 230.853 437.842 237.553 437.842 245.853V481.453C437.842 489.753 431.142 496.553 422.842 496.553Z" stroke="#A7F3D0" stroke-width="1.8" stroke-miterlimit="10" stroke-linecap="round" stroke-linejoin="round"/>
<path d="M728.542 480.653H604.542C596.242 480.653 589.542 473.953 589.542 465.653V121.353C589.542 113.053 596.242 106.353 604.542 106.353H728.542C736.842 106.353 743.542 113.053 743.542 121.353V465.653C743.542 473.953 736.842 480.653 728.542 480.653Z" stroke="#A7F3D0" stroke-width="1.8" stroke-miterlimit="10" stroke-linecap="round" stroke-linejoin="round"/>
<path d="M85.4425 160.453H-4.45752V151.553H85.4425C86.4425 151.553 87.2425 152.353 87.2425 153.353V158.553C87.3425 159.653 86.5425 160.453 85.4425 160.453Z" stroke="#A7F3D0" stroke-width="1.8" stroke-miterlimit="10" stroke-linecap="round" stroke-linejoin="round"/>
<path d="M69.2425 151.653H48.9425C46.7425 151.653 44.9425 150.053 44.6425 147.853L43.0425 133.453C42.7425 130.953 44.7425 128.653 47.3425 128.653H70.8425C73.4425 128.653 75.3425 130.853 75.1425 133.453L73.5425 147.853C73.2425 149.953 71.4425 151.653 69.2425 151.653Z" stroke="#A7F3D0" stroke-width="1.8" stroke-miterlimit="10" stroke-linecap="round" stroke-linejoin="round"/>
<path d="M56.6425 128.653C56.6425 128.653 48.6425 127.853 47.0425 117.053C47.0425 117.053 54.2425 119.153 56.5425 124.253C56.5425 124.253 57.5425 112.853 62.9425 111.753C62.9425 111.753 65.3425 120.253 61.5425 124.453C61.5425 124.453 64.4425 119.653 71.8425 119.753C71.8425 119.753 69.9425 126.553 62.6425 128.553" fill="#A7F3D0"/>
<path d="M419.742 280.553H329.542C327.242 280.553 325.342 278.653 325.342 276.353V248.953C325.342 246.653 327.242 244.753 329.542 244.753H419.742C422.042 244.753 423.943 246.653 423.943 248.953V276.353C423.943 278.653 422.042 280.553 419.742 280.553Z" stroke="#A7F3D0" stroke-width="1.8" stroke-miterlimit="10" stroke-linecap="round" stroke-linejoin="round"/>
<path d="M384.943 254.453H364.142C363.342 254.453 362.642 253.753 362.642 252.953C362.642 252.153 363.342 251.453 364.142 251.453H384.943C385.743 251.453 386.443 252.153 386.443 252.953C386.443 253.753 385.843 254.453 384.943 254.453Z" fill="#A7F3D0"/>
<path d="M419.742 326.353H329.542C327.242 326.353 325.342 324.453 325.342 322.153V294.753C325.342 292.453 327.242 290.553 329.542 290.553H419.742C422.042 290.553 423.943 292.453 423.943 294.753V322.153C423.943 324.453 422.042 326.353 419.742 326.353Z" stroke="#A7F3D0" stroke-width="1.8" stroke-miterlimit="10" stroke-linecap="round" stroke-linejoin="round"/>
<path d="M384.943 300.253H364.142C363.342 300.253 362.642 299.553 362.642 298.753C362.642 297.953 363.342 297.253 364.142 297.253H384.943C385.743 297.253 386.443 297.953 386.443 298.753C386.443 299.553 385.843 300.253 384.943 300.253Z" fill="#A7F3D0"/>
<path d="M66.9425 280.553H-23.2575C-25.5575 280.553 -27.4575 278.653 -27.4575 276.353V248.953C-27.4575 246.653 -25.5575 244.753 -23.2575 244.753H66.9425C69.2425 244.753 71.1425 246.653 71.1425 248.953V276.353C71.2425 278.653 69.3425 280.553 66.9425 280.553Z" stroke="#A7F3D0" stroke-width="1.8" stroke-miterlimit="10" stroke-linecap="round" stroke-linejoin="round"/>
<path d="M32.2425 254.453H11.4425C10.6425 254.453 9.94247 253.753 9.94247 252.953C9.94247 252.153 10.6425 251.453 11.4425 251.453H32.2425C33.0425 251.453 33.7425 252.153 33.7425 252.953C33.7425 253.753 33.0425 254.453 32.2425 254.453Z" fill="#A7F3D0"/>
<path d="M66.9425 326.353H-23.2575C-25.5575 326.353 -27.4575 324.453 -27.4575 322.153V294.753C-27.4575 292.453 -25.5575 290.553 -23.2575 290.553H66.9425C69.2425 290.553 71.1425 292.453 71.1425 294.753V322.153C71.2425 324.453 69.3425 326.353 66.9425 326.353Z" stroke="#A7F3D0" stroke-width="1.8" stroke-miterlimit="10" stroke-linecap="round" stroke-linejoin="round"/>
<path d="M32.2425 300.253H11.4425C10.6425 300.253 9.94247 299.553 9.94247 298.753C9.94247 297.953 10.6425 297.253 11.4425 297.253H32.2425C33.0425 297.253 33.7425 297.953 33.7425 298.753C33.7425 299.553 33.0425 300.253 32.2425 300.253Z" fill="#A7F3D0"/>
<path d="M770.742 211.253H610.943C608.443 211.253 606.342 209.153 606.342 206.653V126.953C606.342 124.453 608.443 122.353 610.943 122.353H770.842C773.342 122.353 775.443 124.453 775.443 126.953V206.653C775.343 209.153 773.342 211.253 770.742 211.253Z" stroke="#A7F3D0" stroke-width="1.8" stroke-miterlimit="10" stroke-linecap="round" stroke-linejoin="round"/>
<path d="M770.742 310.153H610.943C608.443 310.153 606.342 308.053 606.342 305.553V225.853C606.342 223.353 608.443 221.253 610.943 221.253H770.842C773.342 221.253 775.443 223.353 775.443 225.853V305.553C775.343 308.153 773.342 310.153 770.742 310.153Z" stroke="#A7F3D0" stroke-width="1.8" stroke-miterlimit="10" stroke-linecap="round" stroke-linejoin="round"/>
<path d="M646.842 160.953H636.943V211.253H646.842V160.953Z" stroke="#A7F3D0" stroke-width="1.8" stroke-miterlimit="10" stroke-linecap="round" stroke-linejoin="round"/>
<path d="M657.142 174.653H646.842V211.253H657.142V174.653Z" stroke="#A7F3D0" stroke-width="1.8" stroke-miterlimit="10" stroke-linecap="round" stroke-linejoin="round"/>
<path d="M640.742 266.453L641.842 251.553C641.942 250.553 641.142 249.753 640.142 249.753H635.842H631.542C630.542 249.753 629.842 250.553 629.842 251.553L630.942 266.453C630.942 266.453 621.942 272.253 622.042 277.053C622.142 280.753 624.342 298.453 625.342 306.253C625.642 308.453 627.442 310.053 629.642 310.053H635.842H642.042C644.242 310.053 646.042 308.453 646.342 306.253C647.342 298.453 649.542 280.753 649.642 277.053C649.742 272.253 640.742 266.453 640.742 266.453Z" fill="#A7F3D0"/>
<path d="M16.4425 404.553H660.642" stroke="#A7F3D0" stroke-width="1.8" stroke-miterlimit="10" stroke-linecap="round" stroke-linejoin="round"/>
</g>
<path d="M301.643 89.753L207.943 101.753C203.743 102.253 199.543 98.853 199.143 94.553L189.243 6.75299C188.743 2.65299 192.043 -0.447012 196.243 0.0529885L290.043 12.053C293.543 12.453 296.543 15.453 297.143 18.853L306.842 82.653C307.342 86.253 305.143 89.253 301.643 89.753Z" fill="#F8AB5D"/>
<path d="M305.443 89.753L211.743 101.753C207.543 102.253 203.342 98.853 202.842 94.553L192.842 6.75299C192.342 2.65299 195.642 -0.447012 199.842 0.0529885L293.643 12.053C297.143 12.453 300.143 15.453 300.743 18.853L310.543 82.653C311.143 86.253 308.943 89.353 305.443 89.753Z" fill="#FFE779"/>
<path d="M233.543 32.653C236.543 31.553 237.743 27.253 234.443 22.853C229.443 18.753 224.742 21.753 225.342 26.553C225.642 29.153 227.543 31.453 229.743 32.453C225.643 33.053 222.542 36.253 221.842 40.653L242.943 41.253C241.343 37.053 237.743 33.653 233.543 32.653Z" fill="#22272E"/>
<path d="M252.842 26.2529L287.243 28.7529" stroke="#63737A" stroke-width="1.8" stroke-miterlimit="10" stroke-linecap="round" stroke-linejoin="round"/>
<path d="M253.943 34.453L288.342 36.153" stroke="#63737A" stroke-width="1.8" stroke-miterlimit="10" stroke-linecap="round" stroke-linejoin="round"/>
<path d="M238.342 69.953C241.342 68.453 242.543 63.853 239.143 59.653C234.143 55.853 229.443 59.553 230.043 64.453C230.343 67.153 232.243 69.353 234.543 70.153C230.443 71.153 227.343 74.853 226.643 79.553L247.743 77.953C246.143 73.653 242.442 70.453 238.342 69.953Z" fill="#22272E"/>
<path d="M257.643 61.1529L291.842 60.2529" stroke="#63737A" stroke-width="1.8" stroke-miterlimit="10" stroke-linecap="round" stroke-linejoin="round"/>
<path d="M258.743 69.653L293.043 67.853" stroke="#63737A" stroke-width="1.8" stroke-miterlimit="10" stroke-linecap="round" stroke-linejoin="round"/>
<path d="M391.443 164.753L346.643 156.853C341.543 155.953 337.843 150.053 338.343 143.653L346.643 39.053C347.143 32.653 351.743 26.753 356.943 25.853L402.943 17.953C409.743 16.753 414.943 21.953 414.343 29.553L404.543 153.353C404.143 160.753 398.143 165.853 391.443 164.753Z" fill="#22272E"/>
<path d="M387.943 164.753L343.142 156.853C338.042 155.953 334.342 150.053 334.842 143.653L343.142 39.053C343.642 32.653 348.243 26.753 353.443 25.853L399.443 17.953C406.243 16.753 411.442 21.953 410.842 29.553L401.043 153.353C400.643 160.753 394.543 165.853 387.943 164.753Z" fill="#22272E"/>
<path d="M374.443 33.6529L365.842 34.8529C365.042 34.9529 364.343 34.2528 364.443 33.2528C364.543 32.2528 365.242 31.3528 366.142 31.2528L374.742 29.9529C375.642 29.8529 376.242 30.5529 376.242 31.5529C376.142 32.6529 375.343 33.5529 374.443 33.6529Z" fill="#63737A"/>
<path d="M383.142 32.4529L381.943 32.6529C381.043 32.7529 380.343 32.0529 380.443 31.0529C380.543 30.0529 381.343 29.0529 382.243 28.9529L383.443 28.7529C384.343 28.6529 385.043 29.3529 384.943 30.3529C384.943 31.3529 384.042 32.2529 383.142 32.4529Z" fill="#63737A"/>
<path d="M359.643 144.753L344.743 142.653C343.143 142.453 341.943 140.653 342.143 138.653C342.343 136.653 343.743 135.153 345.343 135.353L360.243 137.153C361.943 137.353 363.243 139.253 363.143 141.353C362.943 143.553 361.343 145.053 359.643 144.753Z" fill="#63737A"/>
<path d="M349.243 49.1529L370.543 46.7529" stroke="#63737A" stroke-width="1.8" stroke-miterlimit="10" stroke-linecap="round" stroke-linejoin="round"/>
<path d="M345.642 93.9529L355.943 94.0529" stroke="#63737A" stroke-width="1.8" stroke-miterlimit="10" stroke-linecap="round" stroke-linejoin="round"/>
<path d="M363.943 94.053L375.243 94.153" stroke="#63737A" stroke-width="1.8" stroke-miterlimit="10" stroke-linecap="round" stroke-linejoin="round"/>
<path d="M384.142 94.2529L396.642 94.3529" stroke="#63737A" stroke-width="1.8" stroke-miterlimit="10" stroke-linecap="round" stroke-linejoin="round"/>
<path d="M373.843 86.0529L348.943 86.3529C347.443 86.3529 346.343 84.8529 346.543 83.0529L348.243 61.4529C348.343 59.6529 349.743 58.0529 351.243 57.8529L376.343 55.6529C378.043 55.4529 379.342 56.9529 379.142 58.9529L377.343 82.3529C377.043 84.3529 375.543 85.9529 373.843 86.0529Z" fill="#A7F3D0"/>
<path d="M406.543 85.5529L389.843 85.7529C388.043 85.7529 386.643 84.153 386.843 82.153L388.743 58.153C388.943 56.153 390.543 54.353 392.343 54.153L409.142 52.653L406.543 85.5529Z" fill="#FFE779"/>
<path d="M390.342 130.853L345.743 126.653C344.243 126.553 343.242 124.953 343.342 123.053L344.743 105.353C344.843 103.553 346.242 102.053 347.642 102.053L392.542 103.353C394.442 103.453 395.842 105.153 395.642 107.253L394.042 127.453C393.842 129.553 392.242 131.053 390.342 130.853Z" fill="#F4C2C9"/>
<path d="M470.243 166.253L425.643 157.053C420.643 156.053 417.143 150.053 417.643 143.653L425.943 39.0529C426.443 32.6529 430.943 26.6529 436.143 25.6529L482.243 16.4529C489.243 15.0529 494.543 20.1529 493.943 27.9529L483.943 154.853C483.143 162.553 476.943 167.653 470.243 166.253Z" fill="#22272E"/>
<path d="M467.443 166.253L422.843 157.053C417.843 156.053 414.343 150.053 414.843 143.653L423.143 39.0529C423.643 32.6529 428.143 26.6529 433.343 25.6529L479.443 16.4529C486.443 15.0529 491.743 20.1529 491.143 27.9529L481.143 154.853C480.342 162.553 474.143 167.653 467.443 166.253Z" fill="#22272E"/>
<path d="M453.943 33.0529L445.342 34.4529C444.542 34.5529 443.943 33.8529 443.943 32.8529C444.043 31.8529 444.742 30.9529 445.642 30.7529L454.243 29.2529C455.143 29.0529 455.743 29.8529 455.743 30.8529C455.543 31.8529 454.843 32.8529 453.943 33.0529Z" fill="#63737A"/>
<path d="M462.642 31.5529L461.443 31.7529C460.543 31.9529 459.843 31.1529 459.943 30.1529C460.043 29.0529 460.843 28.1529 461.743 27.9529L462.943 27.7529C463.843 27.5529 464.543 28.3529 464.443 29.3529C464.443 30.3529 463.542 31.3529 462.642 31.5529Z" fill="#63737A"/>
<path d="M428.943 49.0529L450.043 46.3529" stroke="#63737A" stroke-width="1.8" stroke-miterlimit="10" stroke-linecap="round" stroke-linejoin="round"/>
<path d="M439.043 145.253L424.343 142.853C422.743 142.553 421.643 140.753 421.843 138.753C422.043 136.753 423.343 135.253 424.943 135.553L439.643 137.553C441.343 137.753 442.643 139.753 442.443 141.853C442.343 144.053 440.743 145.553 439.043 145.253Z" fill="#63737A"/>
<path d="M473.542 85.6529L428.542 86.3529C427.042 86.3529 426.042 84.8529 426.142 83.0529L427.842 61.3529C427.942 59.5529 429.243 57.8529 430.743 57.7529L476.042 53.0529C477.942 52.8529 479.443 54.4529 479.243 56.5529L477.243 81.6529C477.143 83.8529 475.442 85.6529 473.542 85.6529Z" fill="#FFE779"/>
<path d="M454.643 69.6529L450.043 66.6529C449.443 66.2529 448.543 66.8529 448.543 67.7529L448.043 74.2529C447.943 75.1529 448.743 75.6529 449.443 75.1529L454.543 71.6529C455.243 71.2529 455.343 70.1529 454.643 69.6529Z" fill="#22272E"/>
<path d="M470.243 126.953L425.743 122.553C424.343 122.453 423.243 120.853 423.443 118.953L425.142 97.253C425.242 95.453 426.543 93.953 428.043 93.953L472.943 94.353C474.843 94.353 476.242 96.153 476.142 98.253L474.142 123.353C473.842 125.553 472.143 127.153 470.243 126.953Z" fill="#63737A"/>
<path d="M451.543 108.753L447.043 105.253C446.443 104.753 445.543 105.353 445.543 106.253L445.043 112.753C444.943 113.653 445.743 114.253 446.443 113.853L451.443 110.853C452.143 110.353 452.243 109.253 451.543 108.753Z" fill="#22272E"/>
<path d="M259.043 95.653C259.043 97.753 260.743 99.353 262.743 99.353H338.342" stroke="#63737A" stroke-width="1.8" stroke-miterlimit="10" stroke-linecap="round" stroke-linejoin="round"/>
<path d="M409.142 99.353H418.443" stroke="#63737A" stroke-width="1.8" stroke-miterlimit="10" stroke-linecap="round" stroke-linejoin="round"/>
<path d="M172.842 376.853H25.5425C23.1425 376.853 21.1425 374.853 21.1425 372.453C21.1425 370.053 23.1425 368.053 25.5425 368.053H172.842C175.242 368.053 177.242 370.053 177.242 372.453C177.242 374.853 175.242 376.853 172.842 376.853Z" fill="#22272E"/>
<path d="M44.3425 376.853H33.5425L32.5425 389.653H43.0425L44.3425 376.853Z" fill="#14B8A6"/>
<path d="M32.5425 389.653L20.9425 543.753C20.8425 545.653 22.2425 547.253 24.1425 547.253C25.8425 547.253 27.2425 545.953 27.3425 544.353L43.0425 389.753H32.5425V389.653Z" fill="#6EE7B7"/>
<path d="M154.042 376.853H164.942L165.842 389.653H155.342L154.042 376.853Z" fill="#14B8A6"/>
<path d="M165.842 389.653L177.542 543.753C177.642 545.653 176.242 547.253 174.342 547.253C172.642 547.253 171.242 545.953 171.142 544.353L155.442 389.753H165.842V389.653Z" fill="#6EE7B7"/>
<path d="M329.243 376.853H181.943C179.543 376.853 177.543 374.853 177.543 372.453C177.543 370.053 179.543 368.053 181.943 368.053H329.243C331.643 368.053 333.643 370.053 333.643 372.453C333.643 374.853 331.743 376.853 329.243 376.853Z" fill="#22272E"/>
<path d="M200.842 376.853H189.943L188.943 389.653H199.543L200.842 376.853Z" fill="#14B8A6"/>
<path d="M188.943 389.653L177.343 543.753C177.243 545.653 178.643 547.253 180.543 547.253C182.243 547.253 183.643 545.953 183.743 544.353L199.543 389.653H188.943Z" fill="#6EE7B7"/>
<path d="M310.443 376.853H321.342L322.342 389.653H311.743L310.443 376.853Z" fill="#14B8A6"/>
<path d="M322.342 389.653L333.943 543.753C334.043 545.653 332.643 547.253 330.743 547.253C329.043 547.253 327.643 545.953 327.543 544.353L311.842 389.753H322.342V389.653Z" fill="#6EE7B7"/>
<path d="M569.621 481.74C569.621 481.74 568.721 502.74 568.921 504.74C569.121 506.84 561.921 511.04 553.021 510.74C544.221 510.44 543.321 507.84 543.321 507.84C543.321 507.84 541.321 485.14 541.121 481.94C540.921 478.74 567.821 477.44 569.621 481.74Z" fill="#F4C2C9"/>
<path d="M568.921 504.14C568.921 504.14 569.721 510.04 570.021 516.44C570.321 522.94 571.321 534.54 570.221 536.54C569.021 538.54 563.021 540.24 548.721 541.34C534.421 542.44 521.221 541.44 518.921 539.64C516.621 537.84 517.321 535.14 519.521 533.04C521.721 530.94 530.421 521.64 534.021 517.84C538.721 512.84 542.121 507.74 542.121 507.14C542.421 504.74 542.921 504.74 542.921 504.74C542.921 504.74 543.521 506.24 544.321 506.14C545.121 506.04 546.221 501.54 551.021 502.64C555.921 503.74 557.821 507.04 559.621 507.04C561.421 506.94 566.321 506.34 568.921 504.14Z" fill="#22272E"/>
<path d="M536.821 516.34C536.821 516.34 544.421 510.24 559.321 518.64" stroke="white" stroke-width="1.8" stroke-miterlimit="10" stroke-linecap="round" stroke-linejoin="round"/>
<path d="M531.121 524.04C531.121 524.04 540.521 516.54 554.521 525.64" stroke="white" stroke-width="1.8" stroke-miterlimit="10" stroke-linecap="round" stroke-linejoin="round"/>
<path d="M621.499 482.485C621.499 482.485 624.199 504.085 624.699 505.385C625.199 506.685 630.199 510.285 637.999 509.885C645.799 509.485 648.799 507.185 649.099 506.685C649.399 506.185 648.899 481.485 648.699 479.885C648.499 478.285 623.299 478.685 621.499 482.485Z" fill="#F4C2C9"/>
<path d="M624.299 503.485C624.099 505.085 623.999 506.585 624.099 508.185C624.199 509.485 624.299 511.285 624.299 513.485C624.399 518.085 624.799 533.985 625.899 536.285C626.999 538.585 639.599 540.485 649.099 540.585C658.599 540.685 665.599 538.185 666.699 535.585C667.799 532.985 667.199 529.185 663.899 524.985C660.599 520.785 652.999 514.285 652.099 511.185C651.199 508.085 649.799 504.485 649.199 503.485C649.199 503.485 647.899 505.285 646.499 505.685C645.199 506.085 643.299 500.685 639.199 500.485C635.099 500.185 633.299 501.885 630.699 505.685C630.599 505.685 626.999 505.985 624.299 503.485Z" fill="#22272E"/>
<path d="M654.399 517.285C654.399 517.285 645.299 513.285 632.999 519.785" stroke="white" stroke-width="1.8" stroke-miterlimit="10" stroke-linecap="round" stroke-linejoin="round"/>
<path d="M658.499 524.085C658.499 524.085 647.999 519.485 635.299 527.785" stroke="white" stroke-width="1.8" stroke-miterlimit="10" stroke-linecap="round" stroke-linejoin="round"/>
<path d="M154.603 482.74C154.603 482.74 155.503 503.74 155.303 505.74C155.103 507.84 162.303 512.04 171.203 511.74C180.003 511.44 180.903 508.84 180.903 508.84C180.903 508.84 182.903 486.14 183.103 482.94C183.303 479.74 156.403 478.44 154.603 482.74Z" fill="#F4C2C9"/>
<path d="M155.303 505.14C155.303 505.14 154.503 511.04 154.203 517.44C153.903 523.94 152.903 535.54 154.003 537.54C155.203 539.54 161.203 541.24 175.503 542.34C189.803 543.44 203.003 542.44 205.303 540.64C207.603 538.84 206.903 536.14 204.703 534.04C202.503 531.94 193.803 522.64 190.203 518.84C185.503 513.84 182.103 508.74 182.103 508.14C181.803 505.74 181.303 505.74 181.303 505.74C181.303 505.74 180.703 507.24 179.903 507.14C179.103 507.04 178.003 502.54 173.203 503.64C168.303 504.74 166.403 508.04 164.603 508.04C162.803 507.94 157.903 507.34 155.303 505.14Z" fill="#22272E"/>
<path d="M187.403 517.34C187.403 517.34 179.803 511.24 164.903 519.64" stroke="white" stroke-width="1.8" stroke-miterlimit="10" stroke-linecap="round" stroke-linejoin="round"/>
<path d="M193.103 525.04C193.103 525.04 183.703 517.54 169.703 526.64" stroke="white" stroke-width="1.8" stroke-miterlimit="10" stroke-linecap="round" stroke-linejoin="round"/>
<path d="M85.203 486.485C85.203 486.485 82.503 508.085 82.003 509.385C81.503 510.685 76.503 514.285 68.703 513.885C60.903 513.485 57.903 511.185 57.603 510.685C57.303 510.185 57.803 485.485 58.003 483.885C58.203 482.285 83.403 482.685 85.203 486.485Z" fill="#F4C2C9"/>
<path d="M82.403 507.485C82.603 509.085 82.703 510.585 82.603 512.185C82.503 513.485 82.403 515.285 82.403 517.485C82.303 522.085 81.903 537.985 80.803 540.285C79.703 542.585 67.103 544.485 57.603 544.585C48.103 544.685 41.103 542.185 40.003 539.585C38.903 536.985 39.503 533.185 42.803 528.985C46.103 524.785 53.703 518.285 54.603 515.185C55.503 512.085 56.903 508.485 57.503 507.485C57.503 507.485 58.803 509.285 60.203 509.685C61.503 510.085 63.403 504.685 67.503 504.485C71.603 504.185 73.403 505.885 76.003 509.685C76.103 509.685 79.703 509.985 82.403 507.485Z" fill="#22272E"/>
<path d="M52.303 521.285C52.303 521.285 61.403 517.285 73.703 523.785" stroke="white" stroke-width="1.8" stroke-miterlimit="10" stroke-linecap="round" stroke-linejoin="round"/>
<path d="M48.203 528.085C48.203 528.085 58.703 523.485 71.403 531.785" stroke="white" stroke-width="1.8" stroke-miterlimit="10" stroke-linecap="round" stroke-linejoin="round"/>
<path d="M620.342 233.653C620.342 233.653 628.442 246.153 630.642 270.753C631.942 284.953 630.142 334.453 630.642 339.153C631.042 342.753 637.642 387.453 643.742 428.453C646.742 448.053 652.142 467.653 655.242 480.353C656.842 487.053 655.343 491.553 653.943 494.553C653.943 494.553 651.943 501.053 642.443 501.553C631.343 502.053 627.542 500.653 622.342 498.453C620.142 497.453 615.543 494.553 614.443 488.553C612.443 477.553 609.842 457.253 603.642 435.653C595.842 408.653 585.942 377.253 582.042 352.853C581.542 349.953 579.442 340.353 577.242 331.253C575.342 323.553 573.443 316.253 572.443 313.453C568.843 303.453 569.242 303.053 568.042 300.653C566.142 296.853 561.742 301.553 557.342 283.353C556.642 280.653 556.142 276.453 555.742 271.953C554.742 260.453 554.443 246.353 554.443 246.353C554.443 246.353 604.942 221.353 620.342 233.653Z" fill="#22272E"/>
<path d="M529.342 245.453C529.342 245.453 522.343 289.753 522.443 344.953C522.443 356.253 525.343 382.653 528.743 410.253C532.343 439.753 532.943 463.753 534.943 487.353C535.243 491.453 537.242 494.253 538.642 495.753C539.642 496.753 540.543 497.853 541.543 498.853C543.143 500.653 546.843 503.353 554.443 503.153C565.743 502.853 571.042 497.353 573.142 494.653C574.842 492.453 576.943 489.853 577.043 482.953C577.343 466.153 573.243 460.553 574.543 406.053C575.043 384.753 574.042 364.653 572.842 352.753C572.242 346.553 593.742 276.153 595.642 267.053C597.542 257.953 545.142 236.353 529.342 245.453Z" fill="#22272E"/>
<path d="M609.443 258.353C609.443 258.353 611.342 273.253 624.642 280.753" stroke="#63737A" stroke-width="1.8" stroke-miterlimit="10" stroke-linecap="round" stroke-linejoin="round"/>
<path d="M577.042 331.253C575.142 323.553 573.242 316.253 572.242 313.453C568.642 303.453 569.042 303.053 567.842 300.653C565.942 296.853 561.542 301.553 557.142 283.353" stroke="#63737A" stroke-width="1.8" stroke-miterlimit="10" stroke-linecap="round" stroke-linejoin="round"/>
<path d="M544.642 191.753C531.842 209.053 518.342 216.853 506.842 209.453C496.942 203.053 486.842 155.853 483.542 139.353C482.842 135.753 482.442 133.653 482.442 133.653L481.342 128.753C481.342 128.753 470.742 127.053 468.142 126.253C465.442 125.453 462.642 123.953 460.542 120.153C458.442 116.353 452.742 109.953 455.442 109.053C458.142 108.153 465.342 116.953 465.342 116.953C465.342 116.953 471.642 117.153 481.242 115.953C490.842 114.753 495.742 114.753 498.742 118.753C500.442 120.953 501.442 124.853 501.442 124.853L503.642 130.753L518.642 170.653C518.642 170.653 519.342 169.353 520.442 167.253C531.142 173.353 538.142 182.353 544.642 191.753Z" fill="#F4C2C9"/>
<path d="M539.342 198.353C541.142 196.353 542.942 194.153 544.642 191.753C538.142 182.453 531.042 173.353 520.342 167.253C519.942 168.053 519.642 168.653 519.342 169.153C528.142 177.453 534.542 187.453 539.342 198.353Z" fill="#E26E85"/>
<path d="M518.642 166.753C529.342 172.953 538.242 182.453 544.742 191.753C546.242 189.653 547.842 187.453 549.342 185.153C540.742 176.553 531.142 168.853 521.542 162.253C520.342 163.853 519.242 165.453 518.642 166.753Z" fill="white"/>
<path d="M543.042 131.153C543.042 131.153 537.043 135.753 530.443 148.153C527.543 153.553 524.043 158.353 521.443 162.153C531.043 168.853 540.642 176.453 549.242 185.053C551.042 182.253 552.842 179.253 554.642 176.153C570.242 148.353 552.542 126.053 543.042 131.153Z" fill="#14B8A6"/>
<path d="M518.642 170.653C518.642 170.653 520.742 176.453 522.542 181.653" stroke="#E26E85" stroke-width="1.8" stroke-miterlimit="10" stroke-linecap="round" stroke-linejoin="round"/>
<path d="M459.642 118.653C459.642 118.653 454.742 114.953 452.142 113.253C449.542 111.553 453.843 109.653 457.743 111.253C461.643 112.853 468.443 115.153 468.443 115.153C468.443 115.153 464.242 111.153 463.142 109.753C462.042 108.353 464.843 107.153 467.543 108.853C470.343 110.653 474.843 114.753 478.043 116.153C481.243 117.553 481.143 121.153 479.543 121.753C478.043 122.353 465.742 121.053 459.642 118.653Z" fill="#F4C2C9"/>
<path d="M495.642 116.253C495.642 116.253 490.242 113.553 488.042 112.653C485.842 111.753 482.342 110.653 481.342 110.553C480.442 110.453 478.742 112.153 482.042 114.853C485.342 117.553 487.242 119.153 487.242 119.153C487.242 119.153 497.242 119.553 495.642 116.253Z" fill="#F4C2C9"/>
<path d="M543.043 130.753C543.043 130.753 548.843 122.853 577.443 120.853C606.043 118.853 622.943 125.153 628.943 135.053C634.943 144.953 618.642 200.453 617.142 208.153C615.642 215.853 623.243 235.153 623.243 239.253C623.243 243.353 590.443 255.453 569.743 255.053C552.143 254.653 537.243 249.453 530.243 246.153C528.443 245.353 527.442 243.353 527.842 241.453C529.042 235.453 531.642 221.753 534.142 209.853C537.442 193.953 528.343 154.453 543.043 130.753Z" fill="#FFE779"/>
<path d="M597.242 127.153C597.142 134.153 585.143 146.453 574.943 147.453C564.743 149.353 559.342 139.853 559.342 131.953C559.342 123.953 568.242 116.553 578.642 115.553C588.442 114.453 597.342 120.053 597.242 127.153Z" fill="white"/>
<path d="M565.742 111.953L564.242 124.753C564.242 124.753 560.642 136.153 571.942 137.553C583.242 138.953 590.942 127.953 591.342 124.153L589.842 95.453C589.942 95.553 569.542 97.453 565.742 111.953Z" fill="#F4C2C9"/>
<path d="M579.642 118.453C575.042 119.853 569.842 119.653 564.842 119.553L564.342 124.053C570.142 124.553 575.842 122.353 579.642 118.453Z" fill="#E26E85"/>
<path d="M564.642 229.453H511.943C509.543 229.453 507.542 227.753 507.142 225.353L501.443 189.053C501.043 186.753 502.843 184.653 505.243 184.653H557.943C560.343 184.653 562.343 186.353 562.743 188.753L568.443 225.053C568.843 227.353 567.042 229.453 564.642 229.453Z" fill="#22272E"/>
<path d="M531.642 192.853C532.526 192.853 533.242 192.137 533.242 191.253C533.242 190.369 532.526 189.653 531.642 189.653C530.759 189.653 530.042 190.369 530.042 191.253C530.042 192.137 530.759 192.853 531.642 192.853Z" fill="#F4C2C9"/>
<path d="M576.342 207.153C576.342 207.153 572.343 202.653 569.943 201.153C567.543 199.653 564.242 198.553 564.242 198.553L564.142 207.053C564.142 207.053 573.842 208.653 576.342 207.153Z" fill="#F4C2C9"/>
<path d="M581.842 206.553C578.442 206.953 576.342 207.153 576.342 207.153C576.342 207.153 574.042 205.353 571.642 204.053C569.242 202.753 564.642 203.353 560.442 203.153C556.242 202.953 551.642 202.753 546.942 202.353C543.342 202.053 540.042 201.653 539.642 203.153C539.042 205.553 544.442 206.153 544.442 206.153C544.442 206.153 539.342 206.153 538.142 206.753C535.642 207.953 537.942 209.953 537.942 209.953C534.342 211.653 537.642 214.253 537.642 214.253C537.642 214.253 535.742 215.053 537.142 217.253C540.042 221.953 554.742 226.253 558.042 226.253C563.442 226.253 572.842 226.253 572.842 226.253C572.842 226.253 576.642 226.553 583.042 227.153C584.842 220.453 584.742 213.153 581.842 206.553Z" fill="#F4C2C9"/>
<path d="M589.542 205.753C586.642 206.053 584.043 206.353 581.943 206.553C584.743 213.153 584.942 220.453 583.042 227.153C585.142 227.353 587.542 227.553 590.142 227.753C592.642 220.553 593.242 212.953 589.542 205.753Z" fill="#22272E"/>
<path d="M615.342 184.853C619.342 193.953 623.142 202.053 623.142 202.053C619.542 202.553 602.043 204.453 589.443 205.753C593.143 213.053 592.542 220.553 590.042 227.853C597.142 228.453 605.942 229.253 615.642 230.153C639.842 232.353 655.342 231.053 658.742 218.053C661.642 206.953 658.042 196.453 646.342 169.153C635.742 173.753 624.942 178.353 615.342 184.853Z" fill="#F4C2C9"/>
<path d="M646.443 169.153C635.743 173.753 624.942 178.353 615.342 184.853C615.642 185.453 615.942 186.153 616.242 186.753C625.542 178.753 637.342 176.853 649.242 175.653C648.342 173.553 647.443 171.453 646.443 169.153Z" fill="#E26E85"/>
<path d="M647.243 161.453C633.143 128.953 623.842 129.453 623.842 129.453C607.242 123.353 600.643 145.953 606.743 164.453C607.943 168.253 610.743 174.153 613.443 180.253C623.043 172.453 636.442 167.453 648.342 163.853C647.842 163.053 647.543 162.253 647.243 161.453Z" fill="#14B8A6"/>
<path d="M613.342 180.253C614.042 181.753 614.742 183.353 615.342 184.853C624.842 178.353 639.442 172.953 650.142 168.353C649.542 166.853 648.842 165.353 648.142 163.753C636.342 167.453 622.842 172.353 613.342 180.253Z" fill="white"/>
<path d="M544.542 206.153C544.542 206.153 551.142 207.053 553.142 207.453C555.142 207.853 559.443 208.053 559.443 208.053" stroke="#E26E85" stroke-width="1.8" stroke-miterlimit="10" stroke-linecap="round" stroke-linejoin="round"/>
<path d="M537.943 209.953C537.943 209.953 545.042 211.653 547.742 212.253C550.442 212.853 558.642 213.753 558.642 213.753" stroke="#E26E85" stroke-width="1.8" stroke-miterlimit="10" stroke-linecap="round" stroke-linejoin="round"/>
<path d="M537.642 214.253C537.642 214.253 541.642 216.453 545.642 217.753C549.742 219.153 557.042 220.153 557.042 220.153" stroke="#E26E85" stroke-width="1.8" stroke-miterlimit="10" stroke-linecap="round" stroke-linejoin="round"/>
<path d="M623.142 201.953C623.142 201.953 635.142 200.053 638.042 200.253" stroke="#E26E85" stroke-width="1.8" stroke-miterlimit="10" stroke-linecap="round" stroke-linejoin="round"/>
<path d="M587.742 219.053C590.614 219.053 592.943 216.725 592.943 213.853C592.943 210.981 590.614 208.653 587.742 208.653C584.871 208.653 582.542 210.981 582.542 213.853C582.542 216.725 584.871 219.053 587.742 219.053Z" fill="white"/>
<path d="M552.642 70.8529C552.642 70.8529 547.842 75.0529 549.342 82.6529C550.842 90.2529 561.542 97.5529 561.542 97.5529C561.542 97.5529 566.242 63.9529 552.642 70.8529Z" fill="#22272E"/>
<path d="M553.642 73.9529C553.642 73.9529 552.342 93.1529 552.042 100.753C551.742 108.353 554.742 118.653 565.842 120.453C576.942 122.253 588.243 116.953 591.943 102.553C595.643 88.1529 595.242 71.6529 582.642 69.4529C570.042 67.2529 553.642 73.9529 553.642 73.9529Z" fill="#F4C2C9"/>
<path d="M588.243 96.753C588.243 96.753 588.642 93.153 585.842 89.553C583.042 85.853 583.443 81.753 583.443 81.753C583.443 81.753 581.342 70.953 565.642 81.253C559.042 85.553 543.542 79.953 546.342 67.753C550.642 48.953 574.242 56.953 581.042 58.153C587.842 59.353 594.543 59.353 595.743 66.353C595.743 66.353 606.343 70.853 603.243 83.253C599.143 99.453 590.943 116.253 590.943 116.253C590.943 116.253 590.043 107.053 588.243 96.753Z" fill="#22272E"/>
<path d="M586.642 96.6529C586.642 96.6529 588.942 88.9529 595.042 90.6529C601.142 92.3529 598.142 104.253 589.742 105.753" fill="#F4C2C9"/>
<path d="M555.842 94.353C555.142 94.353 554.542 93.753 554.542 93.053V91.853C554.542 91.153 555.142 90.553 555.842 90.553C556.542 90.553 557.142 91.153 557.142 91.853V93.053C557.242 93.753 556.642 94.353 555.842 94.353Z" fill="#22272E"/>
<path d="M571.042 94.353C570.342 94.353 569.742 93.753 569.742 93.053V91.853C569.742 91.153 570.342 90.553 571.042 90.553C571.742 90.553 572.342 91.153 572.342 91.853V93.053C572.342 93.753 571.742 94.353 571.042 94.353Z" fill="#22272E"/>
<path d="M553.342 87.0529C553.442 85.9529 554.542 83.6529 556.642 83.7529C559.542 83.9529 560.642 85.8529 560.342 87.0529C560.042 88.0529 558.142 87.3529 556.642 87.2529C554.942 87.0529 553.242 87.9529 553.342 87.0529Z" fill="#22272E"/>
<path d="M561.943 92.553C562.443 93.653 562.343 94.953 562.043 96.053C561.943 96.653 561.643 97.153 561.443 97.753C561.343 98.053 561.143 98.253 561.043 98.553C560.943 98.753 560.642 99.153 560.642 99.253C560.242 99.953 560.243 100.653 560.743 101.453C561.043 101.853 561.343 102.253 561.743 102.553C562.143 102.853 562.542 103.153 563.142 103.253C562.642 103.553 561.942 103.453 561.342 103.353C560.742 103.153 560.142 102.853 559.642 102.353C559.142 101.853 558.742 101.253 558.642 100.553C558.442 99.753 558.643 98.953 559.043 98.353C559.243 97.953 559.343 97.853 559.543 97.653C559.743 97.453 559.843 97.253 559.943 96.953C560.243 96.453 560.443 96.053 560.743 95.553C561.143 94.653 561.643 93.653 561.943 92.553Z" fill="#22272E"/>
<path d="M577.042 86.853C576.942 85.453 575.742 83.553 573.542 83.753C570.442 83.953 569.042 85.653 569.442 87.153C569.742 88.353 571.942 87.353 573.542 87.153C575.342 86.853 577.042 88.053 577.042 86.853Z" fill="#22272E"/>
<path d="M564.742 109.453C564.542 108.753 564.442 108.053 564.342 107.453C564.242 106.453 565.042 105.653 565.942 105.653C567.042 105.653 568.442 105.353 570.242 104.753C574.042 103.353 574.542 105.953 573.442 108.553C570.642 107.953 567.542 108.853 564.742 109.453Z" fill="#22272E"/>
<path d="M573.542 108.653C572.542 110.853 570.342 113.153 567.742 112.653C566.042 112.353 565.142 110.953 564.742 109.553C567.542 108.853 570.642 107.953 573.542 108.653Z" fill="#E26E85"/>
<path d="M595.242 95.2529C594.342 95.1529 593.542 95.2529 593.242 95.5529C593.142 95.7529 593.043 95.9529 592.943 96.1529C592.843 96.3529 592.842 96.8529 592.742 97.1529C592.642 97.8529 592.542 98.6529 592.242 99.6529C592.042 100.153 591.642 100.653 591.142 100.853C590.642 101.053 590.142 101.053 589.742 100.853C590.142 100.553 590.442 100.353 590.642 100.053C590.842 99.7529 590.842 99.5529 590.842 99.1529C590.842 98.4529 590.843 97.6529 590.943 96.7529C591.043 96.2529 591.142 95.8529 591.342 95.3529C591.542 94.8529 591.942 94.3529 592.542 94.1529C593.142 93.9529 593.742 94.0529 594.142 94.1529C594.642 94.6529 595.042 94.9529 595.242 95.2529Z" fill="#22272E"/>
<path d="M169.643 135.953H127.943L123.643 138.753C122.243 139.653 120.443 138.653 120.443 137.053V107.553C120.443 104.553 122.842 102.153 125.842 102.153H169.543C172.543 102.153 174.943 104.553 174.943 107.553V130.553C175.043 133.553 172.643 135.953 169.643 135.953Z" fill="#F4C2C9"/>
<path d="M133.943 111.653H161.743" stroke="#22272E" stroke-width="1.8" stroke-miterlimit="10" stroke-linecap="round" stroke-linejoin="round"/>
<path d="M133.943 119.253H161.743" stroke="#22272E" stroke-width="1.8" stroke-miterlimit="10" stroke-linecap="round" stroke-linejoin="round"/>
<path d="M133.943 126.853H149.943" stroke="#22272E" stroke-width="1.8" stroke-miterlimit="10" stroke-linecap="round" stroke-linejoin="round"/>
<path d="M271.642 302.853C271.642 302.853 288.542 311.053 309.142 332.553C331.242 355.753 336.642 369.653 333.642 382.853C331.242 393.453 331.042 387.453 309.142 388.953C287.242 390.453 266.242 390.053 258.342 389.353C250.442 388.653 207.942 377.553 194.242 364.353C180.542 351.153 184.442 327.753 195.242 304.753C205.942 281.653 268.442 297.053 271.642 302.853Z" fill="#FFE779"/>
<path d="M295.842 373.453C295.842 373.453 300.742 361.653 311.342 360.153C321.842 358.653 336.742 365.553 332.942 388.753C328.442 416.253 283.642 498.053 282.942 501.353C282.242 504.653 288.042 513.153 293.442 517.453C298.842 521.753 320.342 530.853 316.342 540.253C316.342 540.253 292.342 543.653 278.542 541.953C264.742 540.253 261.842 534.153 259.642 535.153C257.442 536.153 254.842 533.253 254.342 532.053C253.842 530.853 258.942 504.653 258.942 504.653C258.942 504.653 278.842 431.953 283.142 414.553C287.542 397.153 295.842 373.453 295.842 373.453Z" fill="#F4C2C9"/>
<path d="M316.342 540.353C316.342 540.353 292.342 543.753 278.542 542.053C264.742 540.353 261.842 534.253 259.642 535.253C257.442 536.253 254.842 533.353 254.342 532.153C254.142 531.653 254.742 527.653 255.642 522.853L282.042 525.453C282.042 525.453 286.142 526.053 291.542 525.453C295.342 525.053 299.642 523.753 302.842 523.253C310.442 527.953 319.042 534.053 316.342 540.353Z" fill="#14B8A6"/>
<path d="M275.342 328.053C275.342 328.053 289.342 336.953 301.042 350.353" stroke="#F8AB5D" stroke-width="1.8" stroke-miterlimit="10" stroke-linecap="round" stroke-linejoin="round"/>
<path d="M262.042 364.353C262.042 364.353 268.942 355.053 280.342 356.553C291.742 358.053 300.642 367.953 297.642 386.753C294.642 405.553 275.842 490.653 274.342 497.553C272.842 504.453 274.942 510.953 280.042 520.353C285.242 529.753 294.342 536.653 293.142 543.853C293.142 543.853 288.242 545.553 275.042 545.553C261.842 545.553 249.842 545.053 248.842 544.353C247.842 543.653 245.142 538.653 243.142 537.953C241.142 537.253 239.142 537.753 238.842 536.053C238.442 534.453 245.242 507.553 246.042 500.653C250.842 457.453 242.642 383.253 262.042 364.353Z" fill="#F4C2C9"/>
<path d="M293.242 543.753C293.242 543.753 288.242 545.453 275.142 545.453C262.042 545.453 249.942 544.953 248.942 544.253C247.942 543.553 245.242 538.553 243.242 537.853C241.242 537.153 239.242 537.553 238.942 535.953C238.742 535.053 240.942 525.653 242.942 516.453C245.042 517.153 249.942 518.953 250.842 520.353C251.942 522.153 253.642 527.953 257.142 529.853C260.442 531.553 277.142 523.953 285.842 528.453C290.042 534.053 294.042 538.853 293.242 543.753Z" fill="#14B8A6"/>
<path d="M297.042 371.053C298.242 375.353 298.542 380.553 297.642 386.653C294.642 405.453 275.842 490.553 274.342 497.453C272.842 504.353 274.942 510.853 280.042 520.253C280.942 521.953 282.042 523.653 283.242 525.153" stroke="#E26E85" stroke-width="1.8" stroke-miterlimit="10" stroke-linecap="round" stroke-linejoin="round"/>
<path d="M264.942 203.553C264.942 203.553 270.942 201.653 285.342 224.753C299.642 247.853 299.242 246.553 299.242 246.553C299.242 246.553 338.243 236.053 341.942 236.153C345.642 236.253 351.743 248.053 343.942 254.753C337.942 259.953 303.542 276.653 292.742 276.753C285.942 276.753 280.142 273.453 263.342 248.553C244.942 221.553 259.442 201.053 264.942 203.553Z" fill="#A7F3D0"/>
<path d="M299.242 246.653C299.242 246.653 290.042 248.453 287.042 255.653" stroke="#14B8A6" stroke-width="1.8" stroke-miterlimit="10" stroke-linecap="round" stroke-linejoin="round"/>
<path d="M357.542 228.853C357.542 228.853 357.842 226.453 357.542 222.253C357.242 218.053 355.742 212.653 355.742 212.653C355.742 212.653 353.542 211.553 353.042 214.853C352.542 218.153 351.242 225.553 351.242 225.553C351.242 225.553 354.442 232.153 357.542 228.853Z" fill="#F4C2C9"/>
<path d="M342.342 270.653H302.842C300.342 270.653 298.442 268.453 298.842 265.953L308.442 202.853C308.942 199.753 311.542 197.553 314.642 197.553H354.142C356.642 197.553 358.542 199.753 358.142 202.253L348.542 265.353C348.142 268.453 345.442 270.653 342.342 270.653Z" fill="#22272E"/>
<path d="M340.842 199.553H328.342C327.242 199.553 326.442 198.653 326.642 197.553C326.842 196.453 327.942 195.553 329.042 195.553H341.542C342.642 195.553 343.443 196.453 343.243 197.553C342.943 198.653 341.942 199.553 340.842 199.553Z" fill="#FFE779"/>
<path d="M355.042 222.953C355.042 222.953 340.843 222.053 338.443 222.353C336.143 222.553 335.342 224.853 337.842 225.853C339.742 226.653 346.443 227.753 346.443 227.753C346.443 227.753 332.842 230.153 331.342 231.453C329.842 232.853 330.642 234.353 331.942 234.753C331.942 234.753 328.742 236.453 331.042 238.553C333.342 240.653 341.742 241.453 341.742 241.453C341.742 241.453 334.042 240.353 333.842 242.353C333.742 244.253 344.042 246.553 348.142 246.053C354.242 245.253 353.642 243.453 354.242 241.753C354.842 240.053 356.643 231.753 357.443 228.853C357.543 228.853 357.742 224.553 355.042 222.953Z" fill="#F4C2C9"/>
<path d="M345.742 227.853C345.742 227.853 353.742 229.553 354.542 229.453" stroke="#E26E85" stroke-width="1.8" stroke-miterlimit="10" stroke-linecap="round" stroke-linejoin="round"/>
<path d="M331.942 234.853C331.942 234.853 333.442 235.353 337.442 235.453C341.442 235.553 353.242 234.253 353.242 234.253" stroke="#E26E85" stroke-width="1.8" stroke-miterlimit="10" stroke-linecap="round" stroke-linejoin="round"/>
<path d="M339.842 241.253C339.842 241.253 347.942 242.053 351.342 241.253" stroke="#E26E85" stroke-width="1.8" stroke-miterlimit="10" stroke-linecap="round" stroke-linejoin="round"/>
<path d="M265.242 225.253C265.242 225.253 275.142 212.753 269.342 192.053C266.142 180.753 258.542 174.353 261.242 161.253C264.142 146.553 269.342 144.853 253.942 139.953C253.942 139.953 231.242 133.853 217.242 144.153C208.242 150.753 207.842 156.953 208.142 169.653C208.342 179.153 197.642 169.853 194.342 187.553C192.542 197.153 192.242 195.353 183.442 203.253C170.642 214.753 184.042 254.053 215.942 258.553C247.842 263.053 263.342 240.853 265.242 225.253Z" fill="#22272E"/>
<path d="M190.342 217.553C190.542 211.053 194.942 205.453 201.042 203.553C207.142 201.653 216.243 199.453 227.243 198.553C247.842 196.853 262.542 200.553 264.342 202.553C266.142 204.553 266.743 214.853 268.243 219.153C269.743 223.453 280.642 233.253 278.442 244.953C276.242 256.653 272.142 262.553 270.842 267.753C269.542 272.953 268.442 279.653 268.642 283.753C268.842 287.853 274.542 303.253 275.142 306.553C275.742 309.853 264.342 320.053 240.842 321.053C221.442 321.853 201.542 315.453 194.342 310.653C192.542 309.453 191.742 307.153 192.442 305.053C194.342 299.053 198.542 284.953 199.142 280.153C199.842 273.853 193.742 252.353 191.742 237.253C190.542 229.453 190.142 222.753 190.342 217.553Z" fill="#14B8A6"/>
<path d="M215.742 196.953C215.742 196.953 213.942 208.653 222.042 209.153C230.142 209.653 226.642 211.653 228.442 215.753C230.342 219.953 235.742 218.353 236.442 217.753C240.642 214.453 242.342 220.553 246.442 219.853C250.542 219.153 248.942 215.753 251.042 214.953C253.142 214.153 257.442 214.953 255.842 209.553C254.142 203.653 260.542 208.353 257.242 201.253C253.442 192.953 234.342 193.853 222.842 196.353C211.342 198.853 215.942 194.953 215.742 196.953Z" fill="white"/>
<path d="M249.142 190.653C249.142 190.653 249.442 200.153 249.842 202.353C250.142 204.553 253.542 214.553 242.842 214.053C236.842 213.753 232.342 210.353 229.542 207.453C227.342 205.153 226.242 202.053 226.342 198.853L227.242 182.253C227.242 182.153 246.842 179.353 249.142 190.653Z" fill="#F4C2C9"/>
<path d="M233.842 187.553C234.542 196.453 241.742 200.553 249.642 201.253C249.442 199.353 249.342 196.053 249.242 193.553C244.242 197.053 237.442 192.353 233.842 187.553Z" fill="#E26E85"/>
<path d="M258.142 152.553C244.242 149.653 228.942 152.853 215.742 158.653C215.742 158.753 215.742 158.853 215.742 158.953C216.342 181.853 223.942 194.353 236.942 196.653C249.942 198.953 259.542 190.853 258.342 176.353C257.642 166.353 257.942 157.253 258.142 152.553Z" fill="#F4C2C9"/>
<path d="M215.742 158.553C228.942 152.753 244.242 149.553 258.142 152.453C258.242 150.253 258.342 149.053 258.342 149.053" fill="#F4C2C9"/>
<path d="M255.342 158.553C250.042 156.053 249.042 164.653 237.242 160.653C234.142 159.553 230.742 156.053 229.942 163.653C229.542 167.253 231.042 170.753 226.242 177.553C222.342 183.153 236.742 200.253 217.342 206.953C204.042 211.553 197.042 201.753 189.542 213.353C184.542 221.053 194.042 197.453 211.842 186.353C220.242 181.153 213.342 164.853 212.842 161.053C212.442 157.253 214.542 149.553 227.242 146.553C239.942 143.553 253.842 132.753 262.742 141.553C268.942 147.653 267.742 164.253 255.342 158.553Z" fill="#22272E"/>
<path d="M206.242 210.153C201.042 205.253 192.542 207.053 189.442 213.453C186.042 220.653 180.342 232.853 174.742 246.153C165.842 267.453 162.142 287.953 174.742 294.653C187.342 301.353 204.442 287.953 213.342 277.353C222.242 266.753 234.542 250.353 234.542 250.353C234.542 250.353 232.642 237.453 223.542 236.753L206.442 249.653C206.442 249.653 210.442 240.453 211.842 235.753C213.342 231.053 213.042 216.653 206.442 210.253C206.342 210.253 206.242 210.153 206.242 210.153Z" fill="#A7F3D0"/>
<path d="M206.442 249.653C206.442 249.653 182.442 264.753 178.242 272.653" stroke="#14B8A6" stroke-width="1.8" stroke-miterlimit="10" stroke-linecap="round" stroke-linejoin="round"/>
<path d="M223.442 236.753C223.442 236.753 239.443 226.253 240.743 225.753C242.043 225.153 251.842 227.453 252.842 227.953C253.842 228.453 255.842 233.253 255.842 233.253C255.842 233.253 263.842 237.053 264.042 237.753C264.242 238.453 262.642 240.553 262.142 240.853C261.642 241.053 259.442 241.253 259.042 241.353C258.642 241.453 254.542 248.053 252.542 249.653C250.542 251.253 241.042 249.853 239.642 249.853C238.142 249.853 231.743 251.853 231.743 251.853C231.743 251.853 227.542 250.953 224.442 245.853C221.342 240.753 223.442 236.753 223.442 236.753Z" fill="#F4C2C9"/>
<path d="M271.442 235.453L274.242 237.453C274.642 237.753 274.442 238.353 273.942 238.353L270.542 238.453L234.942 227.853C233.942 227.553 233.242 226.653 233.542 225.753C233.842 224.853 234.842 224.453 235.842 224.753L271.442 235.453Z" fill="white"/>
<path d="M255.342 234.053C255.342 234.053 262.642 233.553 263.042 232.753C263.542 231.953 263.242 230.653 262.142 229.753C261.042 228.853 249.442 228.353 246.942 228.153C244.442 227.953 241.142 228.553 238.942 230.353C236.842 232.353 248.142 239.353 255.342 234.053Z" fill="#F4C2C9"/>
<path d="M259.142 241.353C259.142 241.353 253.642 240.553 252.942 240.553C252.242 240.553 249.942 240.553 249.942 240.553" stroke="#E26E85" stroke-width="1.8" stroke-miterlimit="10" stroke-linecap="round" stroke-linejoin="round"/>
<path d="M255.942 245.753C255.942 245.753 252.142 246.053 250.742 246.253C249.342 246.353 248.442 246.253 248.442 246.253" stroke="#E26E85" stroke-width="1.8" stroke-miterlimit="10" stroke-linecap="round" stroke-linejoin="round"/>
<path d="M245.042 185.253C242.942 185.153 240.442 184.553 238.442 182.353" stroke="#22272E" stroke-width="1.8" stroke-miterlimit="10" stroke-linecap="round" stroke-linejoin="round"/>
<path d="M253.842 174.953C254.742 174.953 255.542 174.153 255.542 173.253V172.253C255.542 171.353 254.742 170.553 253.842 170.553C252.942 170.553 252.142 171.353 252.142 172.253V173.253C252.142 174.153 252.842 174.953 253.842 174.953Z" fill="#22272E"/>
<path d="M238.242 174.953C239.142 174.953 239.942 174.153 239.942 173.253V172.253C239.942 171.353 239.142 170.553 238.242 170.553C237.342 170.553 236.542 171.353 236.542 172.253V173.253C236.542 174.153 237.342 174.953 238.242 174.953Z" fill="#22272E"/>
<path d="M248.142 181.653C249.142 181.353 249.742 180.753 250.242 180.153C250.742 179.553 251.042 178.853 251.042 178.253C251.042 178.053 251.042 177.953 250.942 177.753L250.742 177.053C250.642 176.553 250.542 176.153 250.442 175.553C250.342 174.553 250.342 173.653 250.542 172.653C251.142 173.453 251.442 174.453 251.842 175.253L252.342 176.453L252.642 177.153C252.742 177.453 252.842 177.753 252.842 178.053C252.842 178.653 252.642 179.353 252.342 179.853C252.042 180.353 251.642 180.753 251.142 181.053C250.642 181.353 250.142 181.553 249.642 181.653C249.142 181.953 248.642 181.953 248.142 181.653Z" fill="#22272E"/>
<path d="M233.442 164.553C233.542 163.553 234.742 162.953 236.642 162.453C240.642 161.953 242.242 163.553 241.642 165.553C241.142 167.153 238.342 165.653 236.542 165.653C235.042 165.553 233.442 165.453 233.442 164.553Z" fill="#22272E"/>
<path d="M257.642 164.453C257.642 163.453 256.642 162.953 255.242 162.353C252.242 161.753 250.942 163.353 251.342 165.153C251.742 166.653 253.842 165.353 255.242 165.353C256.442 165.453 257.742 165.353 257.642 164.453Z" fill="#22272E"/>
<path d="M40.5425 305.453C40.5425 305.453 32.3425 313.853 32.2425 333.253C32.1425 356.353 46.8425 372.953 70.9425 372.953C95.0425 372.953 142.943 372.253 160.043 372.953C177.143 373.653 174.843 335.953 162.243 324.353C149.643 312.853 52.0425 291.353 40.5425 305.453Z" fill="#22272E"/>
<path d="M63.9425 363.753C66.3425 356.253 74.8425 344.253 90.3425 347.353C107.142 350.653 115.342 356.353 107.442 405.253C100.542 447.653 88.2425 495.953 86.3425 503.053C86.1425 503.653 85.7425 504.153 85.1425 504.353C83.3425 504.953 79.2425 506.253 72.9425 506.253C65.5425 506.253 57.4425 503.553 54.2425 500.753C53.5425 500.153 53.1425 499.153 53.2425 498.253C54.0425 486.253 60.0425 394.153 60.5425 387.253C61.5425 377.353 62.2425 369.053 63.9425 363.753Z" fill="#22272E"/>
<path d="M175.943 347.353C193.143 348.053 202.243 359.253 197.443 405.253C193.143 446.453 185.443 493.553 184.043 502.453C183.843 503.453 183.243 504.253 182.243 504.553C180.243 505.253 176.443 506.153 170.843 506.153C163.843 506.153 155.943 503.753 152.243 501.053C151.143 500.253 150.543 498.953 150.643 497.653C150.943 486.953 152.143 430.353 148.143 387.353C145.543 359.953 159.843 346.653 175.943 347.353Z" fill="#22272E"/>
<path d="M157.142 261.253C156.542 259.653 156.142 258.653 156.142 258.653L124.042 265.353L124.642 281.253C136.942 277.853 148.142 270.453 157.142 261.253Z" fill="#896068"/>
<path d="M165.642 286.553C163.942 279.253 159.242 266.653 157.142 261.253C148.142 270.553 136.942 277.853 124.542 281.153L125.042 296.453L139.242 340.853L156.042 331.253C168.642 303.753 167.842 295.953 165.642 286.553Z" fill="#F4C2C9"/>
<path d="M11.9425 265.053C10.4425 264.453 9.74249 262.753 10.3425 261.253C13.4425 252.453 24.1425 223.753 33.1425 213.753C43.9425 201.853 78.0425 201.153 92.5425 201.153C107.042 201.153 127.442 203.753 135.542 210.753C142.542 216.753 154.142 246.553 157.342 254.953C157.842 256.253 157.343 257.753 156.243 258.553C152.243 261.253 142.742 267.353 133.743 270.653L138.042 331.253C138.042 331.253 44.6425 329.853 40.9425 328.053C37.2425 326.153 32.4425 304.353 33.1425 302.053C33.8425 299.853 40.5425 274.253 40.5425 274.253C40.5425 274.253 21.7425 269.353 11.9425 265.053Z" fill="#FFE779"/>
<path d="M40.5425 274.253C40.5425 274.253 44.2425 275.253 45.7425 275.553C45.7425 275.553 53.9425 252.353 55.0425 245.853C56.1425 239.353 56.1425 234.553 55.0425 232.353" stroke="#F8AB5D" stroke-width="1.8" stroke-miterlimit="10" stroke-linecap="round" stroke-linejoin="round"/>
<path d="M133.742 270.653C133.742 270.653 132.842 243.453 132.442 237.853C132.042 232.253 131.842 227.453 130.042 223.753" stroke="#F8AB5D" stroke-width="1.8" stroke-miterlimit="10" stroke-linecap="round" stroke-linejoin="round"/>
<path d="M40.5425 274.253C40.5425 274.253 20.5425 268.853 12.3425 265.253C12.3425 265.253 12.0425 266.053 11.6425 267.353C19.9425 273.453 28.9425 278.953 38.6425 281.253L40.5425 274.253Z" fill="#896068"/>
<path d="M88.0425 324.353C85.0425 324.053 74.8425 326.553 74.8425 326.553C64.8425 316.353 36.0425 291.353 36.0425 291.353L38.7425 281.153C29.0425 278.853 20.0425 273.353 11.7425 267.253C9.74249 273.253 4.24249 291.053 5.74249 300.153C7.64249 311.253 38.5425 331.053 63.0425 343.653C63.0425 343.653 66.3425 347.253 74.5425 349.753C77.2425 350.553 80.9425 351.853 82.4425 352.053C83.9425 352.253 87.8425 351.853 90.2425 352.053C92.6425 352.253 93.7425 350.153 96.3425 350.453C98.9425 350.753 99.6425 349.053 101.542 350.153C103.442 351.253 104.842 349.053 104.842 346.853C104.742 344.753 91.0425 324.753 88.0425 324.353Z" fill="#F4C2C9"/>
<path d="M36.0425 291.453C36.0425 291.453 28.8425 288.653 23.1425 291.453" stroke="#896068" stroke-width="1.8" stroke-miterlimit="10" stroke-linecap="round" stroke-linejoin="round"/>
<path d="M109.243 208.853C109.643 218.453 101.342 226.053 90.8425 225.753C80.3425 225.453 71.4425 217.353 71.1425 207.753C70.7425 198.153 79.8425 195.153 90.4425 195.453C100.942 195.753 108.943 199.253 109.243 208.853Z" fill="white"/>
<path d="M76.0425 183.853C76.0425 183.853 76.2425 203.753 76.0425 207.453C75.8425 211.153 80.1425 220.253 92.6425 220.253C105.143 220.253 105.743 208.053 105.543 207.453C105.343 206.853 104.843 188.053 104.243 186.853C103.843 185.653 79.6425 179.053 76.0425 183.853Z" fill="#F4C2C9"/>
<path d="M83.2425 199.753C89.1425 206.453 97.3425 208.953 105.542 208.553C105.642 207.953 105.542 207.553 105.542 207.453C105.542 207.253 105.442 205.753 105.342 203.553C97.9425 205.853 90.6425 201.853 83.2425 199.753Z" fill="#896068"/>
<path d="M113.042 170.853C113.042 170.853 112.242 184.053 111.642 191.953C111.042 199.853 107.042 207.953 93.5425 208.353C80.0425 208.753 73.6425 198.453 72.1425 190.753C69.9425 179.053 66.1425 156.453 84.8425 153.853C103.542 151.253 113.042 157.153 113.042 170.853Z" fill="#F4C2C9"/>
<path d="M73.8106 180.614C73.8106 180.614 77.2106 179.514 77.3106 173.414C77.3106 167.214 80.6106 162.114 87.2106 163.914C93.8106 165.714 103.011 170.814 108.411 170.714C114.811 170.514 116.811 163.614 117.311 155.114C117.811 146.514 115.011 141.314 111.711 142.214C108.411 143.114 105.611 145.914 101.511 140.714C95.9106 133.714 90.9106 133.914 86.9106 137.214C79.9106 143.114 81.5106 146.214 75.1106 143.714C71.4106 142.214 68.8106 142.614 67.0106 149.514C65.2106 156.414 65.9106 158.314 61.6106 157.714C57.2106 157.114 60.0106 179.914 67.0106 185.014C67.1106 185.014 72.5106 180.114 73.8106 180.614Z" fill="#22272E"/>
<path d="M74.5425 180.453C74.5425 180.453 72.5425 172.153 67.0425 173.853C61.4425 175.553 63.9425 189.053 72.9425 190.753" fill="#F4C2C9"/>
<path d="M94.3425 198.753C92.1425 198.653 89.5425 198.053 87.4425 195.753" stroke="#22272E" stroke-width="1.8" stroke-miterlimit="10" stroke-linecap="round" stroke-linejoin="round"/>
<path d="M105.342 183.753C106.342 183.753 107.142 182.953 107.142 181.953V180.953C107.142 179.953 106.342 179.153 105.342 179.153C104.342 179.153 103.542 179.953 103.542 180.953V181.953C103.642 182.953 104.342 183.753 105.342 183.753Z" fill="#22272E"/>
<path d="M87.8425 183.753C88.8425 183.753 89.6425 182.953 89.6425 181.953V180.953C89.6425 179.953 88.8425 179.153 87.8425 179.153C86.8425 179.153 86.0425 179.953 86.0425 180.953V181.953C86.0425 182.953 86.8425 183.753 87.8425 183.753Z" fill="#22272E"/>
<path d="M108.942 174.553C108.842 173.353 107.642 171.753 105.342 171.853C102.242 171.953 101.742 173.753 102.142 174.953C102.442 175.953 103.842 174.853 105.442 174.653C107.242 174.553 109.042 175.553 108.942 174.553Z" fill="#22272E"/>
<path d="M96.2425 194.553C97.7425 194.553 99.0425 193.853 99.6425 192.853C99.9425 192.353 100.242 191.753 100.342 191.053C100.542 190.453 100.542 189.753 100.642 189.053C100.742 187.653 100.542 186.353 100.442 184.853C100.342 183.353 100.142 181.853 100.442 180.353C100.942 181.753 101.442 183.153 101.842 184.553C102.042 185.253 102.242 186.053 102.342 186.753C102.442 187.553 102.542 188.353 102.442 189.053C102.342 190.653 101.942 192.353 100.742 193.553C100.142 194.153 99.3425 194.653 98.5425 194.753C97.7425 194.953 96.9425 194.853 96.2425 194.553Z" fill="#22272E"/>
<path d="M83.2425 174.553C83.3425 173.353 84.6425 171.753 87.0425 171.853C90.4425 172.053 90.9425 173.753 90.5425 174.953C90.1425 175.953 88.7425 174.853 87.0425 174.653C85.0425 174.553 83.1425 175.553 83.2425 174.553Z" fill="#22272E"/>
<path d="M67.1425 179.453C67.2425 179.053 67.4425 178.553 67.8425 178.253C68.0425 178.053 68.4425 178.053 68.7425 178.153C68.9425 178.153 69.0425 178.253 69.1425 178.353C69.2425 178.453 69.4425 178.553 69.4425 178.653C69.8425 179.053 70.0425 179.453 70.2425 179.853C70.4425 180.253 70.5425 180.753 70.6425 181.153C70.8425 182.053 70.7425 182.853 70.6425 183.553C70.6425 183.853 70.5425 184.153 70.6425 184.453C70.7425 184.753 71.0425 184.953 71.3425 185.253C70.9425 185.353 70.4425 185.353 69.9425 185.053C69.5425 184.753 69.2425 184.153 69.1425 183.753C68.9425 182.853 68.8425 182.153 68.7425 181.453C68.6425 181.153 68.6425 180.753 68.5425 180.453C68.4425 180.153 68.3425 179.853 68.2425 179.553C68.1425 179.353 68.1425 179.153 67.8425 179.153C67.9425 179.053 67.5425 179.253 67.1425 179.453Z" fill="#22272E"/>
<path d="M86.1425 190.653C90.8369 190.653 94.6425 186.847 94.6425 182.153C94.6425 177.459 90.8369 173.653 86.1425 173.653C81.448 173.653 77.6425 177.459 77.6425 182.153C77.6425 186.847 81.448 190.653 86.1425 190.653Z" stroke="#22272E" stroke-width="1.8" stroke-miterlimit="10" stroke-linecap="round" stroke-linejoin="round"/>
<path d="M109.042 190.653C113.295 190.653 116.742 186.847 116.742 182.153C116.742 177.459 113.295 173.653 109.042 173.653C104.79 173.653 101.342 177.459 101.342 182.153C101.342 186.847 104.79 190.653 109.042 190.653Z" stroke="#22272E" stroke-width="1.8" stroke-miterlimit="10" stroke-linecap="round" stroke-linejoin="round"/>
<path d="M78.1425 179.253H76.7425C76.1425 179.253 75.5425 179.053 75.0425 178.653L73.3425 177.253" stroke="#22272E" stroke-width="1.8" stroke-miterlimit="10" stroke-linecap="round" stroke-linejoin="round"/>
<path d="M94.4424 180.353C94.4424 180.353 99.1424 178.653 101.342 180.353" stroke="#22272E" stroke-width="1.8" stroke-miterlimit="10" stroke-linecap="round" stroke-linejoin="round"/>
<path d="M178.943 356.353H82.9425C80.1425 356.353 78.0425 353.653 78.8425 350.953L86.0425 324.453L93.3425 297.453C94.1425 294.453 96.8425 292.353 99.9425 292.353H165.842H195.943C198.743 292.353 200.843 295.053 200.043 297.753L185.543 351.253C184.743 354.253 182.043 356.353 178.943 356.353Z" fill="#22272E"/>
<path d="M200.043 297.853L185.543 351.253C184.743 354.253 182.043 356.353 178.943 356.353H82.9425" stroke="#63737A" stroke-width="1.8" stroke-miterlimit="10" stroke-linecap="round" stroke-linejoin="round"/>
<path d="M147.12 329.83C150.439 326.915 151.298 322.466 149.039 319.893C146.779 317.321 142.256 317.599 138.937 320.514C135.618 323.43 134.758 327.879 137.018 330.452C139.278 333.024 143.8 332.746 147.12 329.83Z" fill="#63737A"/>
</svg>
