<svg width="676" height="506" viewBox="0 0 676 506" fill="none" xmlns="http://www.w3.org/2000/svg">
<g opacity="0.9">
<path d="M591.843 434.148L71.8426 419.249C47.6426 418.548 27.7426 400.048 25.3426 375.948L0.242581 127.948C-2.55742 99.8485 19.2426 75.3485 47.4426 74.9485L626.243 66.9485C655.443 66.5485 678.343 92.0485 674.743 121.048L641.043 391.949C637.943 416.549 616.643 434.848 591.843 434.148Z" fill="#F0ABFC"/>
<mask id="mask0" style="mask-type:alpha" maskUnits="userSpaceOnUse" x="0" y="66" width="676" height="369">
<path d="M591.842 434.148L71.8425 419.249C47.6425 418.548 27.7425 400.048 25.3425 375.948L0.24249 127.948C-2.55751 99.8485 19.2425 75.3485 47.4425 74.9485L626.242 66.9485C655.443 66.5485 678.342 92.0485 674.742 121.048L641.042 391.949C637.943 416.549 616.642 434.848 591.842 434.148Z" fill="#EAF9F3"/>
</mask>
<g mask="url(#mask0)">
<path d="M444.843 560.449H860.343C868.643 560.449 875.343 553.749 875.343 545.449V309.749C875.343 301.449 868.643 294.749 860.343 294.749H444.843C436.543 294.749 429.843 301.449 429.843 309.749V545.349C429.843 553.649 436.543 560.449 444.843 560.449Z" stroke="#C084FC" stroke-width="1.8" stroke-miterlimit="10" stroke-linecap="round" stroke-linejoin="round"/>
<path d="M-59.7574 497.848H359.343C367.643 497.848 374.343 491.148 374.343 482.848V138.548C374.343 130.248 367.643 123.548 359.343 123.548H-59.7574C-68.0574 123.548 -74.7574 130.248 -74.7574 138.548V482.848C-74.7574 491.148 -68.0574 497.848 -59.7574 497.848Z" stroke="#C084FC" stroke-width="1.8" stroke-miterlimit="10" stroke-linecap="round" stroke-linejoin="round"/>
<path d="M103.343 228.448H123.643C125.843 228.448 127.643 226.848 127.943 224.648L129.543 210.249C129.843 207.749 127.843 205.448 125.243 205.448H101.743C99.1426 205.448 97.2426 207.649 97.4426 210.249L99.0426 224.648C99.3426 226.748 101.243 228.448 103.343 228.448Z" stroke="#C084FC" stroke-width="1.8" stroke-miterlimit="10" stroke-linecap="round" stroke-linejoin="round"/>
<path d="M115.943 205.448C115.943 205.448 123.943 204.648 125.543 193.848C125.543 193.848 118.343 195.948 116.043 201.048C116.043 201.048 115.043 189.648 109.643 188.548C109.643 188.548 107.243 197.048 111.043 201.248C111.043 201.248 108.143 196.448 100.743 196.548C100.743 196.548 102.643 203.348 109.943 205.348" fill="#C084FC"/>
<path d="M448.043 344.448H538.243C540.543 344.448 542.443 342.548 542.443 340.248V312.848C542.443 310.548 540.543 308.648 538.243 308.648H448.043C445.743 308.648 443.843 310.548 443.843 312.848V340.248C443.743 342.548 445.643 344.448 448.043 344.448Z" stroke="#C084FC" stroke-width="1.8" stroke-miterlimit="10" stroke-linecap="round" stroke-linejoin="round"/>
<path d="M482.743 318.348H503.543C504.343 318.348 505.043 317.648 505.043 316.848C505.043 316.048 504.343 315.348 503.543 315.348H482.743C481.943 315.348 481.243 316.048 481.243 316.848C481.243 317.648 481.943 318.348 482.743 318.348Z" fill="#C084FC"/>
<path d="M448.043 390.249H538.243C540.543 390.249 542.443 388.348 542.443 386.048V358.648C542.443 356.348 540.543 354.448 538.243 354.448H448.043C445.743 354.448 443.843 356.348 443.843 358.648V386.048C443.743 388.348 445.643 390.249 448.043 390.249Z" stroke="#C084FC" stroke-width="1.8" stroke-miterlimit="10" stroke-linecap="round" stroke-linejoin="round"/>
<path d="M482.743 364.148H503.543C504.343 364.148 505.043 363.448 505.043 362.648C505.043 361.848 504.343 361.148 503.543 361.148H482.743C481.943 361.148 481.243 361.848 481.243 362.648C481.243 363.448 481.943 364.148 482.743 364.148Z" fill="#C084FC"/>
<path d="M29.3426 375.948H119.543C121.843 375.948 123.743 374.048 123.743 371.748V344.348C123.743 342.048 121.843 340.148 119.543 340.148H29.3426C27.0426 340.148 25.1426 342.048 25.1426 344.348V371.748C25.0426 374.048 26.9426 375.948 29.3426 375.948Z" stroke="#C084FC" stroke-width="1.8" stroke-miterlimit="10" stroke-linecap="round" stroke-linejoin="round"/>
<path d="M64.0426 349.748H84.8426C85.6426 349.748 86.3426 349.048 86.3426 348.248C86.3426 347.448 85.6426 346.748 84.8426 346.748H64.0426C63.2426 346.748 62.5426 347.448 62.5426 348.248C62.5426 349.148 63.2426 349.748 64.0426 349.748Z" fill="#C084FC"/>
<path d="M145.143 375.948H235.343C237.643 375.948 239.543 374.048 239.543 371.748V344.348C239.543 342.048 237.643 340.148 235.343 340.148H145.143C142.843 340.148 140.943 342.048 140.943 344.348V371.748C140.843 374.048 142.743 375.948 145.143 375.948Z" stroke="#C084FC" stroke-width="1.8" stroke-miterlimit="10" stroke-linecap="round" stroke-linejoin="round"/>
<path d="M179.843 349.748H200.643C201.443 349.748 202.143 349.048 202.143 348.248C202.143 347.448 201.443 346.748 200.643 346.748H179.843C179.043 346.748 178.343 347.448 178.343 348.248C178.343 349.148 179.043 349.748 179.843 349.748Z" fill="#C084FC"/>
<path d="M562.943 344.448H653.143C655.443 344.448 657.343 342.548 657.343 340.248V312.848C657.343 310.548 655.443 308.648 653.143 308.648H562.943C560.643 308.648 558.743 310.548 558.743 312.848V340.248C558.743 342.548 560.643 344.448 562.943 344.448Z" stroke="#C084FC" stroke-width="1.8" stroke-miterlimit="10" stroke-linecap="round" stroke-linejoin="round"/>
<path d="M597.743 318.348H618.543C619.343 318.348 620.043 317.648 620.043 316.848C620.043 316.048 619.343 315.348 618.543 315.348H597.743C596.943 315.348 596.243 316.048 596.243 316.848C596.243 317.648 596.843 318.348 597.743 318.348Z" fill="#C084FC"/>
<path d="M562.943 390.249H653.143C655.443 390.249 657.343 388.348 657.343 386.048V358.648C657.343 356.348 655.443 354.448 653.143 354.448H562.943C560.643 354.448 558.743 356.348 558.743 358.648V386.048C558.743 388.348 560.643 390.249 562.943 390.249Z" stroke="#C084FC" stroke-width="1.8" stroke-miterlimit="10" stroke-linecap="round" stroke-linejoin="round"/>
<path d="M597.743 364.148H618.543C619.343 364.148 620.043 363.448 620.043 362.648C620.043 361.848 619.343 361.148 618.543 361.148H597.743C596.943 361.148 596.243 361.848 596.243 362.648C596.243 363.448 596.843 364.148 597.743 364.148Z" fill="#C084FC"/>
<path d="M-102.057 228.448H352.943C355.443 228.448 357.543 226.348 357.543 223.848V144.148C357.543 141.648 355.443 139.548 352.943 139.548H-102.057C-104.557 139.548 -106.657 141.648 -106.657 144.148V223.848C-106.657 226.348 -104.557 228.448 -102.057 228.448Z" stroke="#C084FC" stroke-width="1.8" stroke-miterlimit="10" stroke-linecap="round" stroke-linejoin="round"/>
<path d="M-102.057 327.348H352.943C355.443 327.348 357.543 325.249 357.543 322.749V243.048C357.543 240.548 355.443 238.448 352.943 238.448H-102.057C-104.557 238.448 -106.657 240.548 -106.657 243.048V322.749C-106.657 325.249 -104.557 327.348 -102.057 327.348Z" stroke="#C084FC" stroke-width="1.8" stroke-miterlimit="10" stroke-linecap="round" stroke-linejoin="round"/>
<path d="M317.021 228.445H326.921V178.145H317.021V228.445Z" stroke="#C084FC" stroke-width="1.8" stroke-miterlimit="10" stroke-linecap="round" stroke-linejoin="round"/>
<path d="M306.778 228.359H317.078V191.759H306.778V228.359Z" stroke="#C084FC" stroke-width="1.8" stroke-miterlimit="10" stroke-linecap="round" stroke-linejoin="round"/>
<path d="M18.6431 327.185H28.5431L28.5431 276.885H18.6431L18.6431 327.185Z" stroke="#C084FC" stroke-width="1.8" stroke-miterlimit="10" stroke-linecap="round" stroke-linejoin="round"/>
<path d="M8.40028 327.2H18.7003L18.7003 290.6H8.40028L8.40028 327.2Z" stroke="#C084FC" stroke-width="1.8" stroke-miterlimit="10" stroke-linecap="round" stroke-linejoin="round"/>
<path d="M38.8288 327.185H48.7288L48.7288 276.885H38.8288L38.8288 327.185Z" stroke="#C084FC" stroke-width="1.8" stroke-miterlimit="10" stroke-linecap="round" stroke-linejoin="round"/>
<path d="M63.7327 326.767L73.1733 323.786L58.028 275.82L48.5873 278.8L63.7327 326.767Z" stroke="#C084FC" stroke-width="1.8" stroke-miterlimit="10" stroke-linecap="round" stroke-linejoin="round"/>
<path d="M28.5859 327.2H38.8859L38.8859 290.6H28.5859L28.5859 327.2Z" stroke="#C084FC" stroke-width="1.8" stroke-miterlimit="10" stroke-linecap="round" stroke-linejoin="round"/>
<path d="M152.22 228.445H162.12V178.145H152.22V228.445Z" stroke="#C084FC" stroke-width="1.8" stroke-miterlimit="10" stroke-linecap="round" stroke-linejoin="round"/>
<path d="M141.977 228.359H152.277V191.759H141.977V228.359Z" stroke="#C084FC" stroke-width="1.8" stroke-miterlimit="10" stroke-linecap="round" stroke-linejoin="round"/>
<path d="M249.947 228.445H259.847V178.145H249.947V228.445Z" stroke="#C084FC" stroke-width="1.8" stroke-miterlimit="10" stroke-linecap="round" stroke-linejoin="round"/>
<path d="M274.846 227.942L284.287 224.961L269.142 176.995L259.701 179.976L274.846 227.942Z" stroke="#C084FC" stroke-width="1.8" stroke-miterlimit="10" stroke-linecap="round" stroke-linejoin="round"/>
<path d="M239.704 228.359H250.004V191.759H239.704V228.359Z" stroke="#C084FC" stroke-width="1.8" stroke-miterlimit="10" stroke-linecap="round" stroke-linejoin="round"/>
<path d="M18.8426 184.648L17.7426 169.749C17.6426 168.749 18.4426 167.948 19.4426 167.948H23.7426H28.0426C29.0426 167.948 29.7426 168.749 29.7426 169.749L28.6426 184.648C28.6426 184.648 37.6426 190.449 37.5426 195.249C37.4426 198.949 35.2426 216.648 34.2426 224.448C33.9426 226.648 32.1426 228.249 29.9426 228.249H23.7426H17.5426C15.3426 228.249 13.5426 226.648 13.2426 224.448C12.2426 216.648 10.0426 198.949 9.94257 195.249C9.84257 190.449 18.8426 184.648 18.8426 184.648Z" fill="#C084FC"/>
<path d="M679.843 409.148L-277.357 399.648" stroke="#C084FC" stroke-width="1.8" stroke-miterlimit="10" stroke-linecap="round" stroke-linejoin="round"/>
</g>
<path d="M326.943 264.548L307.443 420.348C307.243 422.048 308.543 423.548 310.243 423.548C311.643 423.548 312.843 422.548 313.043 421.148L335.343 268.448L326.943 264.548Z" fill="#C084FC"/>
<path d="M387.543 286.849L407.043 442.648C407.243 444.348 405.943 445.849 404.243 445.849C402.843 445.849 401.643 444.849 401.443 443.449L379.143 290.749L387.543 286.849Z" fill="#C084FC"/>
<path d="M292.943 280.749L266.743 435.549C266.443 437.249 267.743 438.749 269.443 438.849C270.843 438.949 272.043 437.949 272.343 436.549L301.243 284.949L292.943 280.749Z" fill="#C084FC"/>
<path d="M366.343 265.249L380.743 421.549C380.943 423.249 382.543 424.449 384.143 424.049C385.543 423.749 386.443 422.448 386.343 421.148L375.443 267.149L366.343 265.249Z" fill="#C084FC"/>
<path d="M408.043 126.149C397.143 124.349 361.043 250.749 361.043 250.749H395.743C395.743 250.749 378.743 271.049 378.143 272.949C377.543 274.849 371.343 300.549 371.343 300.549C412.843 287.349 403.643 250.649 403.643 250.649C394.743 223.149 407.143 187.949 412.443 158.849C417.743 129.649 408.043 126.149 408.043 126.149Z" fill="#FFE779"/>
<path d="M279.443 293.848C279.443 293.848 280.343 307.548 316.043 309.548C351.743 311.548 397.743 308.048 403.743 267.548C403.843 267.548 286.643 282.448 279.443 293.848Z" fill="#FFE779"/>
<path d="M394.943 247.949C385.243 212.549 422.743 133.449 408.143 126.049C393.143 118.549 335.543 121.649 320.043 135.049C305.543 147.649 298.943 241.048 298.143 252.848C298.043 253.248 298.043 253.649 298.043 254.049C298.043 261.049 297.043 272.849 291.943 276.549C282.043 283.749 265.743 294.649 296.943 302.649C296.943 302.649 310.443 305.749 348.943 304.149C401.043 301.949 395.843 269.849 395.743 250.649C395.743 249.749 395.443 248.849 394.943 247.949Z" fill="white"/>
<path d="M255.743 427.549C255.743 427.549 260.143 448.549 261.143 450.249C262.143 451.949 269.643 455.649 279.843 452.649C290.043 449.549 290.343 445.849 290.343 445.849C290.343 445.849 288.343 421.749 288.343 419.049C288.243 416.349 254.043 411.549 255.743 427.549Z" fill="#F4C2C9"/>
<path d="M289.343 434.349C288.843 427.749 288.243 420.449 288.243 419.049C288.243 416.349 253.943 411.549 255.643 427.549C255.643 427.549 256.343 430.749 257.143 434.749C267.943 437.649 279.043 437.449 289.343 434.349Z" fill="#896068"/>
<path d="M260.043 446.649C260.043 446.649 258.843 448.549 258.843 458.449C258.843 468.349 243.843 490.749 244.843 496.849C245.843 502.949 288.043 504.449 291.843 499.949C295.643 495.349 291.643 462.249 291.943 458.749C292.143 455.149 293.543 448.649 290.143 444.449C290.143 444.449 286.643 447.949 283.843 448.549C281.043 449.149 278.443 443.449 272.943 442.449C267.443 441.449 263.843 447.949 263.243 448.549C262.643 449.149 260.243 448.349 260.043 446.649Z" fill="#22272E"/>
<path d="M261.843 470.049C261.843 470.049 270.343 464.149 283.843 470.849" stroke="white" stroke-width="1.8" stroke-miterlimit="10" stroke-linecap="round" stroke-linejoin="round"/>
<path d="M258.543 479.449C258.543 479.449 270.343 471.148 283.943 481.148" stroke="white" stroke-width="1.8" stroke-miterlimit="10" stroke-linecap="round" stroke-linejoin="round"/>
<path d="M364.443 438.949C364.443 438.949 371.243 457.948 374.943 461.348C378.643 464.748 388.543 465.048 395.343 461.348C402.143 457.648 401.843 452.049 401.843 452.049C401.843 452.049 395.943 420.948 394.643 420.148C393.243 419.248 364.443 429.849 364.443 438.949Z" fill="#F4C2C9"/>
<path d="M364.443 438.949C364.443 438.949 366.143 443.648 368.243 448.848C379.843 450.848 389.943 446.948 399.743 441.348C397.943 432.248 395.443 420.648 394.643 420.148C393.243 419.248 364.443 429.849 364.443 438.949Z" fill="#896068"/>
<path d="M371.843 456.049C371.843 456.049 370.943 456.349 373.543 464.749C374.843 469.249 360.443 492.349 360.743 498.049C361.043 503.749 373.043 504.749 382.543 505.049C397.043 505.449 406.543 502.549 407.343 493.249C408.143 483.949 405.643 465.849 405.643 461.849C405.643 457.849 404.343 453.249 401.043 447.849C401.043 447.849 401.343 455.349 398.343 456.749C395.343 458.249 389.743 452.749 385.443 453.849C381.143 454.949 379.343 458.248 377.543 460.148C375.743 461.948 372.343 457.149 371.843 456.049Z" fill="#22272E"/>
<path d="M376.243 475.449C376.243 475.449 384.043 467.649 397.743 473.649" stroke="white" stroke-width="1.8" stroke-miterlimit="10" stroke-linecap="round" stroke-linejoin="round"/>
<path d="M371.943 484.349C371.943 484.349 384.243 474.149 397.643 483.549" stroke="white" stroke-width="1.8" stroke-miterlimit="10" stroke-linecap="round" stroke-linejoin="round"/>
<path d="M294.243 248.649C294.243 248.649 248.343 273.949 236.243 297.149C224.143 320.349 243.043 394.249 242.743 409.849C242.443 425.449 244.443 427.749 253.143 431.049C261.843 434.349 280.743 433.649 288.643 427.749C298.843 420.149 294.143 406.249 291.843 389.449C289.543 372.749 288.443 323.049 288.443 323.049C288.443 323.049 310.043 305.549 320.643 300.349C322.743 299.249 325.043 298.849 327.143 298.649C330.443 298.449 332.843 301.549 331.943 304.649C329.343 313.849 325.643 336.949 327.143 347.549C328.543 357.449 335.443 381.949 348.943 423.449C351.643 431.649 352.543 438.249 355.843 441.049C369.743 452.749 399.943 440.249 403.143 429.349C404.443 424.849 401.143 409.549 396.843 392.849C390.743 368.949 382.543 342.149 383.143 339.249C384.143 334.349 397.043 289.349 393.643 269.149C385.443 220.249 347.543 239.949 294.243 248.649Z" fill="#22272E"/>
<path d="M288.443 323.049C288.443 323.049 287.843 316.849 285.943 313.549" stroke="#63737A" stroke-width="1.8" stroke-miterlimit="10" stroke-linecap="round" stroke-linejoin="round"/>
<path d="M328.443 298.348C328.443 298.348 329.543 291.448 327.743 289.448" stroke="#63737A" stroke-width="1.8" stroke-miterlimit="10" stroke-linecap="round" stroke-linejoin="round"/>
<path d="M316.043 290.249C316.043 290.249 323.443 289.649 339.443 290.249" stroke="#63737A" stroke-width="1.8" stroke-miterlimit="10" stroke-linecap="round" stroke-linejoin="round"/>
<path d="M300.143 146.949C300.143 146.949 294.343 149.049 285.343 162.649C276.643 175.749 268.843 183.949 268.843 183.949C268.843 183.949 258.543 172.649 247.743 165.449C236.943 158.249 224.643 146.949 224.643 146.949C224.643 146.949 216.543 142.549 211.443 148.549C206.343 154.449 208.943 163.249 208.943 163.249C208.943 163.249 221.043 179.649 238.843 201.049C250.443 215.049 262.243 225.049 272.143 221.949C285.343 217.849 311.343 194.249 315.843 184.849C320.243 175.349 316.943 143.549 300.143 146.949Z" fill="#A855F7"/>
<path d="M268.743 183.949C268.743 183.949 272.343 188.349 274.043 193.849" stroke="#22272E" stroke-width="1.8" stroke-miterlimit="10" stroke-linecap="round" stroke-linejoin="round"/>
<path d="M225.043 147.449C225.043 147.449 217.043 140.849 211.343 141.449C203.943 142.249 204.043 140.549 199.343 141.549C197.143 142.049 193.143 143.649 188.943 148.849C184.743 154.049 183.243 156.749 183.243 156.749C183.243 156.749 178.843 147.349 176.143 148.849C173.443 150.249 179.843 164.749 182.043 166.249C184.243 167.749 190.743 165.149 193.043 166.249C195.343 167.349 201.543 165.349 201.543 165.349L210.043 163.249L212.243 165.649C212.943 166.449 214.043 166.649 215.043 166.349C217.043 165.549 220.443 163.649 222.643 158.949C226.143 151.649 225.043 147.449 225.043 147.449Z" fill="#F4C2C9"/>
<path d="M183.243 156.749C183.243 156.749 178.843 147.349 176.143 148.849C173.443 150.249 179.843 164.749 182.043 166.249C184.243 167.749 190.743 165.149 193.043 166.249" stroke="#896068" stroke-width="1.8" stroke-miterlimit="10" stroke-linecap="round" stroke-linejoin="round"/>
<path d="M214.743 153.849C214.743 153.849 211.843 161.449 208.243 166.349C204.543 171.249 199.243 171.449 196.843 169.849C194.443 168.349 197.643 157.249 198.343 154.549C199.043 151.849 201.243 149.349 202.643 152.349C203.743 154.649 202.143 160.149 202.443 164.549" fill="#F4C2C9"/>
<path d="M198.143 168.949C198.143 168.949 195.043 170.849 193.243 170.249C191.443 169.649 190.343 168.349 190.043 165.649C189.743 163.049 190.743 154.849 190.643 152.749C190.543 150.649 193.843 148.949 195.243 153.749C196.643 158.649 195.943 162.749 196.843 163.749" fill="#F4C2C9"/>
<path d="M191.343 167.549C191.343 167.549 189.043 168.749 186.643 168.949C184.243 169.149 183.143 167.549 182.343 162.649C181.443 156.749 180.743 150.749 182.843 150.449C184.943 150.149 186.043 153.349 186.843 156.649C187.643 159.949 188.143 162.049 188.643 162.149" fill="#F4C2C9"/>
<path d="M200.343 141.449C200.343 141.449 194.643 141.849 192.543 141.849C190.543 141.849 184.943 140.449 183.743 142.149C182.543 143.849 185.943 146.949 192.043 147.749C198.143 148.649 204.043 143.749 200.343 141.449Z" fill="#F4C2C9"/>
<path d="M214.743 170.949C214.743 170.949 222.643 173.549 228.143 165.649C233.043 158.649 231.143 152.649 231.143 152.649" stroke="#22272E" stroke-width="1.8" stroke-miterlimit="10" stroke-linecap="round" stroke-linejoin="round"/>
<path d="M214.743 153.849C214.743 153.849 211.843 161.449 208.243 166.349C204.543 171.249 199.243 171.449 196.843 169.849C194.443 168.349 197.643 157.249 198.343 154.549C199.043 151.849 201.243 149.349 202.643 152.349C203.743 154.649 202.143 160.149 202.443 164.549" stroke="#896068" stroke-width="1.8" stroke-miterlimit="10" stroke-linecap="round" stroke-linejoin="round"/>
<path d="M196.243 169.849C195.243 170.249 194.143 170.549 193.243 170.249C191.443 169.649 190.343 168.349 190.043 165.649C189.743 163.049 190.743 154.849 190.643 152.749C190.543 150.649 193.843 148.949 195.243 153.749C196.243 157.349 196.143 160.449 196.443 162.349" stroke="#896068" stroke-width="1.8" stroke-miterlimit="10" stroke-linecap="round" stroke-linejoin="round"/>
<path d="M190.543 167.849C189.643 168.249 188.243 168.749 186.643 168.849C184.243 169.049 183.143 167.449 182.343 162.549C181.443 156.649 180.743 150.649 182.843 150.349C184.943 150.049 186.043 153.249 186.843 156.549C187.643 159.849 188.143 161.949 188.643 162.049" stroke="#896068" stroke-width="1.8" stroke-miterlimit="10" stroke-linecap="round" stroke-linejoin="round"/>
<path d="M190.243 147.549C190.243 147.549 193.343 144.449 195.843 143.049" stroke="#896068" stroke-width="1.8" stroke-miterlimit="10" stroke-linecap="round" stroke-linejoin="round"/>
<path d="M311.143 93.6486C311.043 91.8486 311.143 90.0485 311.443 88.2485C312.243 84.0485 314.343 75.2486 317.843 72.3486C323.043 68.0486 325.843 74.4485 325.843 74.4485C325.843 74.4485 329.443 69.7485 332.843 70.2485C336.243 70.6485 338.043 74.7485 338.043 74.7485C338.043 74.7485 343.543 70.2485 346.843 72.4485C350.143 74.5485 351.043 78.0485 351.043 78.0485C351.043 78.0485 354.543 74.0486 358.243 75.6486C361.943 77.3486 362.643 86.7485 362.643 86.7485C362.643 86.7485 366.343 88.8486 367.143 96.1486C368.043 103.949 364.243 115.449 356.443 128.649C356.443 128.649 340.343 99.6485 330.143 95.5485C319.943 91.4485 320.043 99.0485 316.843 99.2485C314.043 99.3485 311.643 99.0486 311.143 93.6486Z" fill="#22272E"/>
<path d="M313.143 147.749C313.143 147.749 300.643 149.249 315.243 136.049C327.843 124.649 369.843 127.849 375.243 137.649C379.243 144.949 384.343 164.449 367.343 176.149C350.343 187.749 320.743 175.449 313.143 147.749Z" fill="#A855F7"/>
<path d="M337.143 144.049C337.143 144.049 348.843 143.549 358.643 143.149C368.343 142.649 382.743 142.949 390.643 153.749C399.743 166.049 386.043 208.449 384.043 219.249C382.043 230.049 389.743 243.049 389.343 251.949C389.143 257.049 382.743 270.449 354.343 272.949C322.243 275.849 293.943 269.249 290.843 250.749C288.743 238.349 296.943 229.649 294.143 209.449C292.643 198.849 290.743 164.549 294.343 154.849C297.943 145.149 303.943 141.949 337.143 144.049Z" fill="#FFE779"/>
<path d="M325.143 134.249C325.143 134.249 323.743 145.349 323.143 148.249C322.643 151.149 324.143 159.349 335.743 159.249C348.243 159.149 356.043 149.149 356.343 145.149C356.643 141.149 355.643 121.849 357.343 115.449C359.043 109.049 343.043 112.749 336.143 116.749C329.243 120.749 324.443 130.949 325.143 134.249Z" fill="#F4C2C9"/>
<path d="M345.843 133.349C339.343 134.849 331.343 140.449 324.443 139.349C324.243 141.049 323.943 142.849 323.743 144.449C332.943 145.949 341.643 140.149 345.843 133.349Z" fill="#896068"/>
<path d="M324.143 141.749C324.143 141.749 322.543 153.249 332.243 158.949C332.243 158.949 343.443 157.949 351.643 149.949C354.743 146.949 356.343 142.749 356.343 138.449V137.549C356.343 137.549 372.043 137.749 376.543 142.449C385.143 151.449 349.843 165.749 330.643 168.749C330.643 168.749 312.843 158.849 308.643 148.749C304.443 138.549 322.743 142.149 324.143 141.749Z" fill="#A855F7"/>
<path d="M327.343 162.448C327.343 162.448 322.743 175.949 321.543 191.749" stroke="#22272E" stroke-width="1.8" stroke-miterlimit="10" stroke-linecap="round" stroke-linejoin="round"/>
<path d="M323.843 192.949C323.943 191.649 323.243 187.649 321.943 187.549C320.643 187.449 319.143 191.249 319.043 192.549C318.943 193.849 319.943 195.049 321.243 195.149C322.543 195.349 323.743 194.349 323.843 192.949Z" fill="#A855F7"/>
<path d="M339.043 162.749C339.043 162.749 337.643 176.949 340.143 192.549" stroke="#22272E" stroke-width="1.8" stroke-miterlimit="10" stroke-linecap="round" stroke-linejoin="round"/>
<path d="M342.743 193.349C342.543 192.049 340.943 188.349 339.643 188.549C338.343 188.749 337.743 192.749 337.943 194.049C338.143 195.349 339.343 196.349 340.743 196.149C342.043 195.849 342.943 194.649 342.743 193.349Z" fill="#A855F7"/>
<path d="M302.543 238.349C303.843 236.349 307.843 229.149 308.643 221.249C308.843 219.249 310.643 217.849 312.543 218.049C319.943 218.849 336.443 220.349 348.843 219.249C350.843 219.049 352.543 220.549 352.743 222.549C353.143 226.849 355.043 234.149 362.443 241.249C363.043 241.749 363.443 242.449 363.543 243.249C364.043 245.949 365.143 252.549 364.843 258.149C364.443 265.049 318.043 269.749 302.043 255.549C301.243 254.849 300.843 253.749 300.843 252.749C300.943 250.049 301.343 244.449 302.043 239.849C302.143 239.149 302.343 238.749 302.543 238.349Z" fill="#A855F7"/>
<path d="M312.043 98.3485C312.043 98.3485 311.843 108.149 310.943 116.549C310.143 124.949 310.943 136.149 324.443 139.649C337.943 143.149 351.043 132.949 355.943 119.549C360.843 106.149 361.043 88.0485 343.843 80.9485C326.643 73.8485 312.843 82.7485 312.043 98.3485Z" fill="#F4C2C9"/>
<path d="M362.343 106.949C361.043 113.249 360.143 116.649 360.143 116.649L355.943 112.249C355.943 112.249 348.743 111.249 347.743 98.3486C347.543 96.1486 346.343 94.1486 344.343 93.1486C338.443 90.0486 335.343 94.6486 323.843 93.8486C319.943 93.5486 313.943 92.9486 314.143 86.9486C314.643 71.3485 338.743 72.5486 350.143 79.6486C361.543 86.6486 363.643 100.749 362.343 106.949Z" fill="#22272E"/>
<path d="M351.143 113.149C351.143 113.149 353.743 107.249 358.043 107.849C362.643 108.449 363.043 122.249 351.143 123.049" fill="#F4C2C9"/>
<path d="M318.343 105.449C318.543 106.849 318.543 108.249 318.443 109.549C318.343 110.949 318.143 112.349 317.643 113.649C317.543 113.949 317.343 114.349 317.243 114.649C317.143 114.949 317.043 115.149 316.943 115.449C316.843 115.949 316.843 116.349 317.043 116.749C317.443 117.649 318.643 118.349 319.943 118.849C319.243 119.049 318.543 119.049 317.743 118.849C317.043 118.649 316.243 118.249 315.743 117.549C315.443 117.249 315.243 116.749 315.143 116.349C315.043 115.849 315.043 115.449 315.143 115.049C315.243 114.649 315.443 114.149 315.543 113.949C315.643 113.649 315.843 113.349 315.943 113.149C316.943 110.649 317.443 108.049 318.343 105.449Z" fill="#22272E"/>
<path d="M326.579 128.342C328.494 128.522 331.261 128.198 333.021 125.758" stroke="#22272E" stroke-width="1.8" stroke-miterlimit="10" stroke-linecap="round" stroke-linejoin="round"/>
<path d="M332.543 102.949C332.043 102.349 331.943 100.149 333.943 99.2486C335.943 98.3486 339.243 99.8486 341.143 101.849C343.043 103.849 342.043 104.849 339.743 103.849C337.343 102.949 336.443 102.649 334.443 103.349C333.643 103.649 332.843 103.449 332.543 102.949Z" fill="#22272E"/>
<path d="M318.343 101.949C318.743 101.449 319.043 99.5486 317.643 98.5486C316.243 97.5486 313.943 98.5486 312.743 100.149C311.643 101.549 312.143 102.349 313.643 101.949C315.143 101.449 315.743 101.349 317.043 102.149C317.543 102.449 318.043 102.249 318.343 101.949Z" fill="#22272E"/>
<path d="M358.343 113.349C357.943 113.149 357.543 112.949 357.243 112.949C356.943 112.949 356.843 113.049 356.743 113.249C356.543 113.749 356.343 114.349 356.343 115.149C356.243 115.849 356.243 116.849 355.643 117.849C355.343 118.349 354.843 118.649 354.343 118.749C354.143 118.849 353.843 118.849 353.643 118.849C353.443 118.849 353.143 118.749 352.943 118.749C353.743 118.249 354.343 117.749 354.343 117.249C354.443 116.749 354.443 115.949 354.543 115.049C354.643 114.149 354.843 113.149 355.743 112.349C355.943 112.149 356.343 111.949 356.643 111.949C357.043 111.949 357.343 112.049 357.543 112.149C357.943 112.549 358.243 112.949 358.343 113.349Z" fill="#22272E"/>
<path d="M315.743 110.649C316.543 110.749 317.343 110.149 317.343 109.349L317.443 108.449C317.543 107.649 316.943 106.849 316.143 106.849C315.343 106.749 314.543 107.349 314.543 108.149L314.443 109.049C314.243 109.749 314.843 110.549 315.743 110.649Z" fill="#22272E"/>
<path d="M333.643 112.349C334.443 112.449 335.243 111.849 335.243 111.049L335.343 110.149C335.443 109.349 334.843 108.549 334.043 108.549C333.243 108.449 332.443 109.049 332.443 109.849L332.343 110.748C332.243 111.448 332.843 112.249 333.643 112.349Z" fill="#22272E"/>
<path d="M385.243 151.449C387.543 151.349 389.743 152.349 391.443 153.949C393.443 155.849 397.643 159.849 405.843 167.549C419.043 180.049 420.843 182.449 420.843 182.449C420.843 182.449 432.443 191.549 433.643 202.849C434.843 214.149 427.243 229.349 407.443 216.649C387.643 203.949 378.043 195.449 374.043 186.849C370.443 179.149 372.543 151.749 385.243 151.449Z" fill="#A855F7"/>
<path d="M414.943 193.349C414.943 193.349 419.443 182.949 429.843 173.049C440.243 163.149 452.543 150.949 454.843 148.549C457.143 146.049 462.743 140.649 470.343 146.549C478.043 152.449 473.543 162.749 473.543 162.749C473.543 162.749 460.243 184.149 449.243 202.349C438.243 220.549 427.043 226.549 412.843 219.649C398.543 212.649 414.943 193.349 414.943 193.349Z" fill="#A855F7"/>
<path d="M454.843 150.048C454.843 150.048 460.543 142.348 462.843 139.648C465.143 136.948 469.343 132.848 474.843 134.448C480.443 136.048 483.243 132.648 487.443 137.048C491.643 141.448 494.543 149.548 497.243 152.548C499.943 155.548 499.243 156.348 503.543 156.248C507.843 156.148 511.343 157.148 509.543 159.548C507.743 161.948 496.043 162.548 494.443 162.348C492.843 162.148 485.343 163.148 483.443 162.248C481.543 161.348 481.843 162.148 480.243 161.248C478.643 160.348 474.543 158.348 474.543 158.348C474.543 158.348 473.243 160.948 471.543 162.748C469.843 164.548 462.443 164.248 457.643 158.648C453.543 153.848 454.843 150.048 454.843 150.048Z" fill="#F4C2C9"/>
<path d="M497.243 152.648C499.943 155.648 499.243 156.448 503.543 156.348C507.843 156.248 511.343 157.248 509.543 159.648C507.743 162.048 496.043 162.648 494.443 162.448" stroke="#896068" stroke-width="1.8" stroke-miterlimit="10" stroke-linecap="round" stroke-linejoin="round"/>
<path d="M480.643 159.148C480.843 153.848 482.543 149.648 484.143 150.248C485.843 150.848 486.643 162.148 482.843 164.748C478.943 167.348 468.843 153.348 466.843 152.448" fill="#F4C2C9"/>
<path d="M482.343 163.848C482.343 163.848 484.443 167.948 487.543 165.948C490.643 164.048 493.743 154.748 494.343 152.748C495.043 150.748 491.143 149.948 488.643 154.848C486.243 159.748 484.343 160.448 484.343 160.448" fill="#F4C2C9"/>
<path d="M488.343 164.249C488.343 164.249 489.743 166.849 492.843 166.049C495.943 165.249 499.943 159.049 501.843 157.049C503.743 155.049 501.343 152.449 498.043 154.849C494.743 157.249 492.343 159.549 490.743 160.049" fill="#F4C2C9"/>
<path d="M486.043 135.948C486.043 135.948 488.443 137.148 491.543 141.348C494.743 145.548 500.643 146.148 501.343 148.348C502.043 150.548 495.743 151.448 490.743 149.048C485.843 146.548 483.843 136.448 486.043 135.948Z" fill="#F4C2C9"/>
<path d="M448.543 154.849C448.543 154.849 447.043 161.649 453.243 167.149C460.843 173.949 468.843 170.149 468.843 170.149" stroke="#22272E" stroke-width="1.8" stroke-miterlimit="10" stroke-linecap="round" stroke-linejoin="round"/>
<path d="M480.643 159.148C480.843 153.848 482.543 149.648 484.143 150.248C485.843 150.848 486.643 162.148 482.843 164.748C478.943 167.348 468.843 153.348 466.843 152.448" stroke="#896068" stroke-width="1.8" stroke-miterlimit="10" stroke-linecap="round" stroke-linejoin="round"/>
<path d="M487.543 165.948C490.643 164.048 493.743 154.748 494.343 152.748C495.043 150.748 491.143 149.948 488.643 154.848C487.243 157.748 485.943 159.148 485.243 159.848" stroke="#896068" stroke-width="1.8" stroke-miterlimit="10" stroke-linecap="round" stroke-linejoin="round"/>
<path d="M489.143 165.149C489.843 165.749 491.043 166.449 492.843 165.949C495.943 165.149 499.943 158.949 501.843 156.949C503.743 154.949 501.343 152.349 498.043 154.749C495.443 156.549 493.443 158.449 491.943 159.349" stroke="#896068" stroke-width="1.8" stroke-miterlimit="10" stroke-linecap="round" stroke-linejoin="round"/>
<path d="M495.743 150.448C495.743 150.448 493.043 145.848 492.043 144.548" stroke="#896068" stroke-width="1.8" stroke-miterlimit="10" stroke-linecap="round" stroke-linejoin="round"/>
<path d="M421.343 182.749C421.343 182.749 415.743 189.249 414.543 197.049" stroke="#22272E" stroke-width="1.8" stroke-miterlimit="10" stroke-linecap="round" stroke-linejoin="round"/>
<path d="M114.943 211.948H80.3426C79.0426 211.948 77.6426 210.848 77.3426 209.548L72.3426 188.848C72.0426 187.548 72.8426 186.448 74.2426 186.448H108.843C110.143 186.448 111.543 187.548 111.843 188.848L116.843 209.548C117.143 210.848 116.343 211.948 114.943 211.948Z" fill="#A855F7"/>
<path d="M72.8426 186.948L92.4426 197.948C93.7426 198.748 95.2426 198.748 96.2426 197.948L110.543 186.948" stroke="#22272E" stroke-width="1.8" stroke-miterlimit="10" stroke-linecap="round" stroke-linejoin="round"/>
<path d="M589.143 213.849L510.343 209.149C508.443 209.049 507.143 207.149 507.743 205.349L529.743 135.449C530.343 133.649 531.943 132.349 533.843 132.149L616.043 126.149C618.143 125.949 619.643 127.949 619.043 129.949L593.843 210.549C593.243 212.649 591.243 214.049 589.143 213.849Z" fill="#63737A"/>
<path d="M586.243 212.049L507.443 207.349C505.543 207.249 504.243 205.349 504.843 203.549L526.843 133.649C527.443 131.849 529.043 130.549 530.943 130.349L613.143 124.349C615.243 124.149 616.743 126.149 616.143 128.149L590.943 208.749C590.343 210.849 588.343 212.249 586.243 212.049Z" fill="#22272E"/>
<path d="M545.843 143.849L531.943 144.549C531.443 144.549 531.143 144.149 531.243 143.649L532.243 140.449C532.443 139.949 532.843 139.649 533.343 139.649L547.343 138.849C547.843 138.849 548.143 139.249 548.043 139.749L546.943 143.049C546.743 143.449 546.343 143.749 545.843 143.849Z" fill="#FFE779"/>
<path d="M516.843 198.149C515.443 198.049 514.443 196.749 514.843 195.349L521.443 174.549C521.743 173.649 522.543 173.049 523.443 173.049C524.843 173.049 525.943 174.449 525.443 175.849L518.843 196.649C518.743 197.549 517.843 198.249 516.843 198.149Z" fill="#FFE779"/>
<path d="M526.743 198.549C525.243 198.449 524.243 197.049 524.743 195.649L535.343 161.949C535.643 161.049 536.443 160.449 537.443 160.349C538.943 160.349 540.043 161.749 539.643 163.249L529.043 196.949C528.643 198.049 527.743 198.649 526.743 198.549Z" fill="#63737A"/>
<path d="M536.943 199.049C535.443 198.949 534.443 197.549 534.843 196.049L539.243 182.149C539.543 181.149 540.443 180.549 541.443 180.549C542.943 180.549 544.043 182.049 543.643 183.549L539.243 197.449C538.943 198.449 537.943 199.049 536.943 199.049Z" fill="#FFE779"/>
<path d="M547.543 199.449C545.943 199.349 544.943 197.849 545.343 196.349L557.843 156.549C558.143 155.549 559.043 154.949 560.043 154.849C561.643 154.849 562.843 156.349 562.343 157.949L549.843 197.749C549.543 198.849 548.543 199.549 547.543 199.449Z" fill="#A855F7"/>
<path d="M558.443 199.949C556.843 199.849 555.743 198.249 556.143 196.749L564.343 170.549C564.643 169.549 565.643 168.849 566.643 168.849C568.343 168.849 569.543 170.449 569.043 172.049L560.843 198.249C560.543 199.249 559.543 199.949 558.443 199.949Z" fill="#63737A"/>
<path d="M569.843 200.449C568.143 200.349 567.043 198.749 567.543 197.149L569.243 191.549C569.543 190.449 570.643 189.749 571.743 189.749C573.443 189.749 574.643 191.449 574.143 193.049L572.443 198.649C572.043 199.749 570.943 200.449 569.843 200.449Z" fill="#F4C2C9"/>
<path d="M581.543 200.949C579.843 200.849 578.643 199.149 579.143 197.549L587.643 170.549C587.943 169.449 589.043 168.649 590.143 168.649C591.943 168.649 593.243 170.349 592.743 172.049L584.243 199.049C583.843 200.249 582.743 200.949 581.543 200.949Z" fill="#FFE779"/>
<path d="M592.743 138.849C592.943 138.149 592.643 137.549 592.143 137.549C591.543 137.549 590.943 138.149 590.643 138.949C590.443 139.649 590.743 140.249 591.243 140.249C591.843 140.149 592.543 139.549 592.743 138.849Z" fill="#63737A"/>
<path d="M597.943 138.549C598.143 137.849 597.843 137.249 597.243 137.249C596.643 137.249 595.943 137.949 595.743 138.649C595.543 139.349 595.843 139.949 596.443 139.949C597.043 139.849 597.743 139.249 597.943 138.549Z" fill="#63737A"/>
<path d="M603.243 138.249C603.443 137.549 603.143 136.949 602.543 136.949C601.943 136.949 601.243 137.649 601.043 138.349C600.843 139.049 601.143 139.649 601.743 139.649C602.343 139.649 603.043 138.949 603.243 138.249Z" fill="#63737A"/>
<path d="M291.943 62.2485C291.943 62.2485 284.743 62.5485 282.943 55.9485C281.143 49.3485 287.943 46.3485 287.943 52.5485C287.943 58.7485 278.243 61.4485 274.243 56.2485C270.143 51.0485 274.943 47.0485 276.243 50.0485C277.643 53.0485 274.443 59.3485 268.743 57.4485" stroke="#A855F7" stroke-width="1.8" stroke-miterlimit="10" stroke-linecap="round" stroke-linejoin="round"/>
<path d="M377.943 72.5484C377.943 72.5484 390.243 71.8484 389.443 62.9484C388.643 54.0484 380.643 70.5484 391.343 70.3484C401.943 70.1484 401.443 60.0484 398.243 59.3484C395.043 58.6484 395.843 66.4484 401.743 65.9484C407.643 65.4484 408.543 61.8484 408.543 61.8484" stroke="#A855F7" stroke-width="1.8" stroke-miterlimit="10" stroke-linecap="round" stroke-linejoin="round"/>
<path d="M337.343 55.2485C337.343 53.3485 335.843 51.8485 333.943 51.8485C332.043 51.8485 330.543 53.3485 330.543 55.2485C330.543 57.1485 332.043 58.6485 333.943 58.6485C335.843 58.6485 337.343 57.1485 337.343 55.2485Z" fill="#A855F7"/>
<path d="M353.743 18.3485C354.143 24.1485 352.043 29.4485 348.543 33.2485C344.743 37.3485 342.643 42.7485 342.643 48.3485V51.8485C342.643 53.7485 341.043 55.3485 339.143 55.3485H328.943C327.043 55.3485 325.443 53.7485 325.443 51.8485V48.3485C325.443 42.7485 323.343 37.3485 319.543 33.3485C316.243 29.8485 314.243 25.0485 314.243 19.8485C314.243 8.44851 323.943 -0.751489 335.443 0.0485112C345.143 0.648511 353.043 8.54851 353.743 18.3485Z" fill="#FFE779"/>
<path d="M325.343 48.3485H342.543" stroke="#22272E" stroke-width="1.8" stroke-miterlimit="10" stroke-linecap="round" stroke-linejoin="round"/>
<path d="M325.343 51.7485H342.543" stroke="#22272E" stroke-width="1.8" stroke-miterlimit="10" stroke-linecap="round" stroke-linejoin="round"/>
<path d="M332.143 48.3486V20.9486C332.143 18.4486 329.343 16.9486 327.243 18.3486C325.643 19.4486 325.443 21.8486 326.943 23.2486L328.143 24.3486" stroke="#22272E" stroke-width="1.8" stroke-miterlimit="10" stroke-linecap="round" stroke-linejoin="round"/>
<path d="M335.743 48.3486V20.9486C335.743 18.4486 338.543 16.9486 340.643 18.3486C342.243 19.4486 342.443 21.8486 340.943 23.2486L339.743 24.3486" stroke="#22272E" stroke-width="1.8" stroke-miterlimit="10" stroke-linecap="round" stroke-linejoin="round"/>
<path d="M253.743 123.848L244.943 43.2484C244.643 40.8484 242.743 38.8484 240.343 38.5484L126.243 23.6484C123.643 23.3484 121.443 25.5484 121.743 28.1484L132.943 124.248C133.243 126.948 135.543 128.948 138.243 128.948L249.643 128.348C252.143 128.348 254.043 126.248 253.743 123.848Z" fill="#63737A"/>
<path d="M258.843 123.448L250.043 42.2485C249.743 39.7485 247.843 37.8485 245.443 37.5485L130.543 22.5485C127.943 22.2485 125.643 24.4485 125.943 27.0485L137.243 123.848C137.543 126.548 139.843 128.548 142.543 128.548L254.843 127.948C257.243 127.948 259.043 125.848 258.843 123.448Z" fill="#22272E"/>
<path d="M244.343 115.449H152.943L152.643 112.449L171.943 85.2485C174.243 81.9485 178.543 80.6485 182.343 82.2485L191.143 85.8485C195.143 87.4485 199.643 85.9485 201.843 82.3485L205.743 75.9485C207.943 72.3485 212.343 70.8485 216.243 72.3485C217.243 72.7485 218.343 72.9485 219.343 72.9485C222.043 72.9485 224.543 71.7485 226.243 69.5485L238.243 53.8485L244.343 115.449Z" fill="#FFE779"/>
<path d="M152.643 112.448L145.743 52.6484" stroke="#A855F7" stroke-width="1.8" stroke-miterlimit="10" stroke-linecap="round" stroke-linejoin="round"/>
<path d="M152.343 109.749L168.043 68.7485C169.643 64.4485 174.443 62.3485 178.743 64.0485L186.843 67.2485C190.143 68.5485 193.943 67.5485 196.243 64.8485L201.643 58.2485C204.643 54.6485 209.943 54.1485 213.443 57.3485C216.143 59.8485 220.243 60.1485 223.343 58.1485L237.943 48.8485" stroke="#A855F7" stroke-width="1.8" stroke-miterlimit="10" stroke-linecap="round" stroke-linejoin="round"/>
<path d="M145.043 44.7485L144.443 39.9485C144.343 39.2485 144.943 38.5485 145.743 38.6485L167.443 40.9485C168.143 41.0485 168.643 41.5485 168.743 42.1485L169.443 46.5485C169.543 47.1485 169.043 47.6485 168.443 47.5485L146.343 45.9485C145.643 46.0485 145.143 45.4485 145.043 44.7485Z" fill="#A855F7"/>
<path d="M498.943 91.1485C475.843 113.548 447.143 117.948 436.743 102.548C427.543 88.9485 436.243 64.7485 455.043 47.2485C473.543 30.0485 497.943 22.9485 511.143 32.0485C526.043 42.2485 521.643 69.1485 498.943 91.1485Z" fill="#F8AB5D"/>
<path d="M495.643 87.7484C472.543 110.148 443.843 114.548 433.443 99.1484C424.243 85.5484 432.943 61.3484 451.743 43.8484C470.243 26.6484 494.643 19.5484 507.843 28.6484C522.843 38.9484 518.343 65.8484 495.643 87.7484Z" fill="#FFE779"/>
<path d="M485.943 78.0484C472.043 91.3484 454.643 94.6484 447.643 85.7484C441.243 77.5484 446.343 62.0484 458.543 50.6484C470.643 39.3484 486.343 35.0484 494.443 41.4484C503.143 48.2484 499.643 64.8484 485.943 78.0484Z" fill="#A855F7"/>
<path d="M477.043 69.1485C471.543 74.3485 464.543 75.8485 461.543 72.5485C458.643 69.3485 460.543 62.8484 465.743 57.9484C470.943 53.0484 477.643 51.4485 480.843 54.3485C484.143 57.2485 482.543 63.9485 477.043 69.1485Z" fill="#F4C2C9"/>
<path d="M441.543 35.5484C439.443 37.5484 436.043 37.3484 434.143 35.2484L416.343 12.5484C415.443 11.3484 415.543 9.64844 416.643 8.64844C417.743 7.64844 419.443 7.64844 420.543 8.64844L441.743 28.1484C443.843 30.2484 443.743 33.5484 441.543 35.5484Z" fill="#22272E"/>
<path d="M420.443 16.8485L414.743 17.6485C413.143 17.8485 412.543 19.8485 413.743 20.8485C417.243 23.9485 421.543 25.9485 426.143 26.7485L429.043 27.2485C429.343 27.3485 429.643 26.9485 429.443 26.6485L422.243 17.5485C421.743 17.0485 421.143 16.7485 420.443 16.8485Z" fill="#A855F7"/>
<path d="M424.643 13.0485L425.943 7.44849C426.243 5.94849 428.243 5.44849 429.243 6.74849C432.043 10.4485 433.743 14.8485 434.143 19.5485L434.343 22.4485C434.343 22.7485 433.943 22.9485 433.743 22.7485L425.243 14.9485C424.643 14.3485 424.443 13.6485 424.643 13.0485Z" fill="#A855F7"/>
<path d="M440.743 34.6484L446.443 40.7484" stroke="#22272E" stroke-width="1.8" stroke-miterlimit="10" stroke-linecap="round" stroke-linejoin="round"/>
<path d="M560.843 87.2485V72.6485C560.843 71.9485 560.243 71.3485 559.543 71.3485H552.943C552.243 71.3485 551.642 71.9485 551.642 72.6485V87.2485H547.843C546.843 87.2485 546.243 88.3485 546.743 89.1485L555.043 102.249C555.543 103.049 556.642 103.049 557.142 102.249L565.443 89.1485C565.943 88.3485 565.343 87.2485 564.343 87.2485H560.843Z" fill="#A855F7"/>
<path d="M589.843 103.049V88.4485C589.843 87.7485 589.243 87.1486 588.543 87.1486H581.943C581.243 87.1486 580.642 87.7485 580.642 88.4485V103.049H576.843C575.843 103.049 575.243 104.149 575.743 104.949L584.043 118.049C584.543 118.849 585.642 118.849 586.142 118.049L594.443 104.949C594.943 104.149 594.343 103.049 593.343 103.049H589.843Z" fill="#22272E"/>
<path d="M112.143 160.649C112.643 158.849 111.543 156.949 109.643 156.449C107.843 155.949 105.943 157.049 105.443 158.949C104.943 160.749 106.043 162.649 107.943 163.149C109.743 163.649 111.643 162.549 112.143 160.649Z" fill="#22272E"/>
<path d="M116.343 152.449L116.543 151.549C117.343 148.649 115.543 145.649 112.643 144.849C109.743 144.049 106.743 145.849 105.943 148.749L105.743 149.649C105.443 150.649 104.943 151.549 104.243 152.349C103.643 152.949 103.043 153.649 102.443 154.249C101.143 155.649 101.843 157.949 103.643 158.449L108.643 159.749L113.643 161.049C115.443 161.549 117.243 159.849 116.743 158.049C116.543 157.149 116.343 156.249 116.143 155.449C116.043 154.549 116.043 153.449 116.343 152.449Z" fill="#A855F7"/>
<path d="M19.4426 115.949C19.4426 115.949 56.8426 107.449 56.2426 87.6486L113.443 92.1486C113.443 92.1486 112.743 116.449 75.4426 128.849C75.3426 128.849 35.6426 123.549 19.4426 115.949Z" fill="#FFE779"/>
<path d="M67.3426 115.049L77.4426 116.449" stroke="#22272E" stroke-width="1.8" stroke-miterlimit="10" stroke-linecap="round" stroke-linejoin="round"/>
<path d="M71.5426 111.049L83.2426 112.649" stroke="#22272E" stroke-width="1.8" stroke-miterlimit="10" stroke-linecap="round" stroke-linejoin="round"/>
<path d="M61.5426 101.448C61.5426 101.448 87.3426 105.048 91.9426 105.648" stroke="#22272E" stroke-width="1.8" stroke-miterlimit="10" stroke-linecap="round" stroke-linejoin="round"/>
<path d="M66.1426 107.648C64.4426 110.048 61.0426 113.948 55.5426 116.248C55.3426 116.348 55.0426 116.348 54.7426 116.348C50.8426 115.548 46.8426 114.648 43.0426 113.648C42.4426 113.548 42.4426 112.748 42.9426 112.548C45.4426 111.448 50.3426 109.148 54.6426 105.348C54.9426 105.048 55.3426 104.948 55.6426 105.048C57.7426 105.448 61.3426 105.948 65.7426 106.648C66.1426 106.848 66.4426 107.348 66.1426 107.648Z" fill="#22272E"/>
<path d="M83.1426 96.2485C82.9426 97.3485 82.5425 98.3485 82.3425 98.9485C82.1425 99.3485 81.8425 99.5485 81.4425 99.4485L61.9425 97.3485C61.3425 97.2485 61.0426 96.7485 61.2426 96.1485C61.5426 95.4485 61.7426 94.7485 61.8426 93.9485C61.9426 93.5485 62.3426 93.2485 62.7426 93.2485L82.3425 95.0485C82.8425 95.3485 83.2426 95.7485 83.1426 96.2485Z" fill="#A855F7"/>
<path d="M422.643 126.549C418.743 135.049 409.343 140.649 402.943 138.949C397.343 137.449 396.243 130.749 399.843 124.149C403.243 117.749 410.343 112.749 416.343 112.549C423.043 112.449 426.343 118.549 422.643 126.549Z" fill="#F8AB5D"/>
<path d="M420.643 124.849C416.743 133.349 407.343 138.949 400.943 137.249C395.343 135.749 394.243 129.049 397.843 122.449C401.243 116.049 408.343 111.049 414.343 110.849C421.143 110.649 424.343 116.749 420.643 124.849Z" fill="#FFE779"/>
<path d="M417.443 124.549C414.443 130.849 407.543 135.149 402.643 134.049C398.243 133.049 397.243 127.949 400.043 122.649C402.743 117.649 408.343 113.649 412.943 113.649C418.043 113.649 420.343 118.449 417.443 124.549Z" fill="#F8AB5D"/>
<path d="M404.143 129.949L404.543 129.249C404.643 128.949 404.643 128.749 404.443 128.649C403.943 128.449 403.543 128.249 403.343 127.949C403.243 127.849 403.243 127.549 403.443 127.249L403.543 127.149C403.743 126.849 404.143 126.749 404.243 126.949C404.543 127.249 405.043 127.549 405.643 127.649C406.643 127.849 407.743 127.149 408.243 126.249C408.743 125.349 408.443 124.649 407.643 124.049C406.543 123.249 406.043 122.349 406.843 120.949C407.443 119.749 408.643 118.849 409.943 118.549C410.143 118.549 410.443 118.349 410.543 118.049L410.943 117.349C411.043 117.049 411.443 116.849 411.643 116.849C411.843 116.849 411.943 117.049 411.843 117.349L411.543 117.949C411.443 118.249 411.443 118.449 411.743 118.449C412.143 118.549 412.443 118.649 412.743 118.849C412.943 118.949 412.843 119.249 412.643 119.549L412.543 119.649C412.343 119.949 411.943 120.049 411.743 119.949C411.443 119.749 411.043 119.549 410.443 119.549C409.343 119.449 408.543 120.149 408.243 120.849C407.843 121.649 408.143 122.149 409.043 122.849C410.243 123.749 410.543 124.749 409.743 126.249C409.143 127.549 407.843 128.648 406.343 128.848C406.143 128.848 405.843 129.048 405.743 129.348L405.343 130.149C405.143 130.449 404.843 130.649 404.643 130.649C404.043 130.449 403.943 130.249 404.143 129.949Z" fill="#FFE779"/>
<path d="M100.843 272.948H91.0426L90.5426 290.749H99.9426L100.843 272.948Z" fill="#A855F7"/>
<path d="M90.5426 290.749L84.6426 469.949C84.5426 471.849 86.0426 473.349 87.9426 473.349C89.7426 473.349 91.1426 471.949 91.2426 470.249L99.9426 290.749H90.5426V290.749Z" fill="#C084FC"/>
<path d="M587.143 272.948H577.443L578.243 290.749H587.743L587.143 272.948Z" fill="#A855F7"/>
<path d="M578.243 290.749L586.943 470.249C587.043 472.049 588.443 473.349 590.243 473.349C592.143 473.349 593.643 471.849 593.543 469.949L587.643 290.749H578.243V290.749Z" fill="#C084FC"/>
<path d="M126.943 248.649L121.443 417.149C121.343 418.749 122.643 420.049 124.243 420.049C125.743 420.049 127.043 418.849 127.043 417.349L135.243 248.649H126.943V248.649Z" fill="#C084FC"/>
<path d="M551.243 248.649L556.743 417.149C556.843 418.749 555.543 420.049 553.943 420.049C552.443 420.049 551.143 418.849 551.143 417.349L542.943 248.649H551.243V248.649Z" fill="#C084FC"/>
<path d="M614.843 269.149H63.3426L121.143 241.649H557.143L614.843 269.149Z" fill="white"/>
<path d="M614.843 269.149H63.3426V276.649H614.843V269.149Z" fill="#C084FC"/>
<path d="M515.343 242.549C515.343 242.549 510.643 240.249 509.043 235.649C507.443 231.049 510.243 227.949 511.443 228.249C512.543 228.449 514.443 234.349 515.943 234.349C517.443 234.349 517.143 224.149 520.143 223.049C523.043 222.049 522.843 233.149 522.943 234.049C523.143 236.349 527.043 231.349 528.443 229.349C530.143 226.849 535.643 235.849 524.143 242.549C524.143 242.549 519.743 243.449 515.343 242.549Z" fill="#A855F7"/>
<path d="M534.743 243.649V244.049C534.643 249.949 533.443 255.849 531.343 261.449C530.943 262.349 530.043 263.049 529.043 263.049H511.043C510.043 263.049 509.143 262.449 508.743 261.449C506.643 255.849 505.443 250.049 505.343 244.049V243.649C505.343 242.549 506.143 241.749 507.243 241.749H532.843C533.943 241.649 534.743 242.549 534.743 243.649Z" fill="#22272E"/>
<path d="M467.143 236.249C459.343 237.049 457.343 258.149 442.543 260.249C442.543 260.249 439.843 260.349 435.443 260.449C422.743 260.849 396.543 261.449 385.943 260.549C387.343 260.549 388.843 260.449 390.543 260.249C395.143 259.649 398.443 257.149 401.143 254.149C407.143 247.149 409.843 236.849 415.143 236.349H467.143V236.249Z" fill="#22272E"/>
<path d="M401.043 254.149C398.343 257.249 395.043 259.649 390.443 260.249C388.843 260.449 387.243 260.549 385.843 260.549C374.643 260.549 371.343 254.349 371.343 254.349C371.343 254.349 389.243 255.149 401.043 254.149Z" fill="#A855F7"/>
<path d="M325.443 262.649H252.843V257.249H330.843C330.843 260.249 328.443 262.649 325.443 262.649Z" fill="#22272E"/>
<path d="M268.443 262.648H156.543C152.943 262.648 149.743 260.148 148.843 256.648L130.443 183.348C129.743 180.648 131.843 177.948 134.643 177.948H246.543C250.143 177.948 253.343 180.448 254.243 183.948L272.643 257.249C273.343 259.949 271.343 262.648 268.443 262.648Z" fill="#22272E"/>
<path d="M202.338 226.639C204.985 223.599 203.857 218.282 199.817 214.764C195.777 211.246 190.356 210.859 187.708 213.899C185.061 216.94 186.189 222.256 190.229 225.774C194.269 229.292 199.69 229.68 202.338 226.639Z" fill="#63737A"/>
<path d="M331.543 251.849H307.843C306.743 251.849 305.743 250.949 305.743 249.749C305.743 243.749 310.643 238.849 316.643 238.849H322.643C328.643 238.849 333.543 243.749 333.543 249.749C333.543 250.949 332.643 251.849 331.543 251.849Z" fill="#22272E"/>
<path d="M475.943 254.248C473.743 253.848 470.143 252.748 468.943 248.748C467.743 244.748 476.843 236.048 479.643 236.048C482.443 236.148 487.543 238.848 490.243 242.648C492.843 246.448 487.943 248.848 488.543 250.648C489.143 252.548 483.543 255.748 475.943 254.248Z" fill="white" stroke="#C084FC" stroke-width="1.8" stroke-miterlimit="10" stroke-linecap="round" stroke-linejoin="round"/>
<path d="M468.943 248.748C468.943 248.748 473.643 252.148 475.843 251.148C478.043 250.248 479.743 247.348 483.643 247.748C487.543 248.048 486.743 241.348 483.643 240.248C480.543 239.148 478.343 246.148 475.843 246.248C473.443 246.348 472.743 244.748 475.043 242.948" fill="white"/>
<path d="M468.943 248.748C468.943 248.748 473.643 252.148 475.843 251.148C478.043 250.248 479.743 247.348 483.643 247.748C487.543 248.048 486.743 241.348 483.643 240.248C480.543 239.148 478.343 246.148 475.843 246.248C473.443 246.348 472.743 244.748 475.043 242.948" stroke="#C084FC" stroke-width="1.8" stroke-miterlimit="10" stroke-linecap="round" stroke-linejoin="round"/>
<path d="M464.243 260.448C464.243 260.448 466.743 257.548 465.643 255.948C464.543 254.348 463.643 253.848 463.143 252.948C462.443 251.548 462.543 248.548 460.943 247.048C459.443 245.648 456.743 247.948 450.743 247.148C446.143 246.548 441.943 253.648 443.543 255.648C445.043 257.648 445.743 258.048 445.743 258.048C445.743 258.048 444.843 259.848 445.343 260.948C445.843 262.048 449.343 263.648 454.643 264.148C460.043 264.748 464.243 260.448 464.243 260.448Z" fill="white" stroke="#C084FC" stroke-width="1.8" stroke-miterlimit="10" stroke-linecap="round" stroke-linejoin="round"/>
<path d="M445.743 258.148C445.743 258.148 450.543 261.848 453.943 261.048C457.343 260.248 460.643 254.048 460.443 252.348C460.243 250.648 458.843 249.848 455.443 252.948C452.043 256.048 449.443 255.248 449.743 252.548" fill="white"/>
<path d="M445.743 258.148C445.743 258.148 450.543 261.848 453.943 261.048C457.343 260.248 460.643 254.048 460.443 252.348C460.243 250.648 458.843 249.848 455.443 252.948C452.043 256.048 449.443 255.248 449.743 252.548" stroke="#C084FC" stroke-width="1.8" stroke-miterlimit="10" stroke-linecap="round" stroke-linejoin="round"/>
</g>
</svg>
