<svg width="676" height="523" viewBox="0 0 676 523" fill="none" xmlns="http://www.w3.org/2000/svg">
<g opacity="0.9">
<path d="M591.842 452.325L71.8425 437.425C47.6425 436.725 27.7425 418.225 25.3425 394.125L0.24249 146.125C-2.55751 118.025 19.2425 93.525 47.4425 93.125L626.242 85.125C655.443 84.725 678.342 110.225 674.742 139.225L641.042 410.125C637.943 434.725 616.642 453.025 591.842 452.325Z" fill="#BFDBFE"/>
<mask id="mask0" style="mask-type:alpha" maskUnits="userSpaceOnUse" x="0" y="85" width="676" height="368">
<path d="M591.843 452.325L71.8426 437.425C47.6426 436.725 27.7426 418.225 25.3426 394.125L0.242612 146.125C-2.55739 118.025 19.2426 93.525 47.4426 93.125L626.243 85.125C655.443 84.725 678.343 110.225 674.743 139.225L641.043 410.125C637.943 434.725 616.643 453.025 591.843 452.325Z" fill="#EAF9F3"/>
</mask>
<g mask="url(#mask0)">
<path d="M167.443 497.325H-248.057C-256.357 497.325 -263.057 490.625 -263.057 482.325V246.625C-263.057 238.325 -256.357 231.625 -248.057 231.625H167.443C175.743 231.625 182.443 238.325 182.443 246.625V482.225C182.443 490.625 175.743 497.325 167.443 497.325Z" stroke="#60A5FA" stroke-width="1.8" stroke-miterlimit="10" stroke-linecap="round" stroke-linejoin="round"/>
<path d="M716.543 481.525H297.443C289.143 481.525 282.443 474.825 282.443 466.525V122.225C282.443 113.925 289.143 107.225 297.443 107.225H716.543C724.843 107.225 731.543 113.925 731.543 122.225V466.525C731.543 474.825 724.843 481.525 716.543 481.525Z" stroke="#60A5FA" stroke-width="1.8" stroke-miterlimit="10" stroke-linecap="round" stroke-linejoin="round"/>
<path d="M52.6425 231.625H32.3425C30.1425 231.625 28.3425 230.025 28.0425 227.825L26.4425 213.425C26.1425 210.925 28.1425 208.625 30.7425 208.625H54.2425C56.8425 208.625 58.7425 210.825 58.5425 213.425L56.9425 227.825C56.6425 230.025 54.8425 231.625 52.6425 231.625Z" stroke="#60A5FA" stroke-width="1.8" stroke-miterlimit="10" stroke-linecap="round" stroke-linejoin="round"/>
<path d="M40.0425 208.725C40.0425 208.725 32.0425 207.925 30.4425 197.125C30.4425 197.125 37.6425 199.225 39.9425 204.325C39.9425 204.325 40.9425 192.925 46.3425 191.825C46.3425 191.825 48.7425 200.325 44.9425 204.525C44.9425 204.525 47.8425 199.725 55.2425 199.825C55.2425 199.825 53.3425 206.625 46.0425 208.625" fill="#60A5FA"/>
<path d="M164.243 281.425H74.0425C71.7425 281.425 69.8425 279.525 69.8425 277.225V249.825C69.8425 247.525 71.7425 245.625 74.0425 245.625H164.243C166.543 245.625 168.442 247.525 168.442 249.825V277.225C168.542 279.525 166.643 281.425 164.243 281.425Z" stroke="#60A5FA" stroke-width="1.8" stroke-miterlimit="10" stroke-linecap="round" stroke-linejoin="round"/>
<path d="M129.542 255.225H108.742C107.942 255.225 107.242 254.525 107.242 253.725C107.242 252.925 107.942 252.225 108.742 252.225H129.542C130.342 252.225 131.042 252.925 131.042 253.725C131.042 254.525 130.342 255.225 129.542 255.225Z" fill="#60A5FA"/>
<path d="M164.243 327.225H74.0425C71.7425 327.225 69.8425 325.325 69.8425 323.025V295.625C69.8425 293.325 71.7425 291.425 74.0425 291.425H164.243C166.543 291.425 168.442 293.325 168.442 295.625V323.025C168.542 325.325 166.643 327.225 164.243 327.225Z" stroke="#60A5FA" stroke-width="1.8" stroke-miterlimit="10" stroke-linecap="round" stroke-linejoin="round"/>
<path d="M129.542 301.025H108.742C107.942 301.025 107.242 300.325 107.242 299.525C107.242 298.725 107.942 298.025 108.742 298.025H129.542C130.342 298.025 131.042 298.725 131.042 299.525C131.042 300.425 130.342 301.025 129.542 301.025Z" fill="#60A5FA"/>
<path d="M627.443 359.525H537.242C534.942 359.525 533.042 357.625 533.042 355.325V327.925C533.042 325.625 534.942 323.725 537.242 323.725H627.443C629.743 323.725 631.642 325.625 631.642 327.925V355.325C631.742 357.625 629.843 359.525 627.443 359.525Z" stroke="#60A5FA" stroke-width="1.8" stroke-miterlimit="10" stroke-linecap="round" stroke-linejoin="round"/>
<path d="M592.742 333.425H571.943C571.143 333.425 570.443 332.725 570.443 331.925C570.443 331.125 571.143 330.425 571.943 330.425H592.742C593.542 330.425 594.242 331.125 594.242 331.925C594.242 332.725 593.542 333.425 592.742 333.425Z" fill="#60A5FA"/>
<path d="M511.642 359.525H421.443C419.143 359.525 417.242 357.625 417.242 355.325V327.925C417.242 325.625 419.143 323.725 421.443 323.725H511.642C513.942 323.725 515.842 325.625 515.842 327.925V355.325C515.842 357.625 513.942 359.525 511.642 359.525Z" stroke="#60A5FA" stroke-width="1.8" stroke-miterlimit="10" stroke-linecap="round" stroke-linejoin="round"/>
<path d="M476.943 333.425H456.142C455.342 333.425 454.642 332.725 454.642 331.925C454.642 331.125 455.342 330.425 456.142 330.425H476.943C477.743 330.425 478.443 331.125 478.443 331.925C478.443 332.725 477.743 333.425 476.943 333.425Z" fill="#60A5FA"/>
<path d="M49.2425 281.425H-40.9575C-43.2575 281.425 -45.1575 279.525 -45.1575 277.225V249.825C-45.1575 247.525 -43.2575 245.625 -40.9575 245.625H49.2425C51.5425 245.625 53.4425 247.525 53.4425 249.825V277.225C53.5425 279.525 51.6425 281.425 49.2425 281.425Z" stroke="#60A5FA" stroke-width="1.8" stroke-miterlimit="10" stroke-linecap="round" stroke-linejoin="round"/>
<path d="M14.5425 255.225H-6.25748C-7.05748 255.225 -7.75748 254.525 -7.75748 253.725C-7.75748 252.925 -7.05748 252.225 -6.25748 252.225H14.5425C15.3425 252.225 16.0425 252.925 16.0425 253.725C16.0425 254.525 15.4425 255.225 14.5425 255.225Z" fill="#60A5FA"/>
<path d="M49.2425 327.225H-40.9575C-43.2575 327.225 -45.1575 325.325 -45.1575 323.025V295.625C-45.1575 293.325 -43.2575 291.425 -40.9575 291.425H49.2425C51.5425 291.425 53.4425 293.325 53.4425 295.625V323.025C53.5425 325.325 51.6425 327.225 49.2425 327.225Z" stroke="#60A5FA" stroke-width="1.8" stroke-miterlimit="10" stroke-linecap="round" stroke-linejoin="round"/>
<path d="M14.5425 301.025H-6.25748C-7.05748 301.025 -7.75748 300.325 -7.75748 299.525C-7.75748 298.725 -7.05748 298.025 -6.25748 298.025H14.5425C15.3425 298.025 16.0425 298.725 16.0425 299.525C16.0425 300.425 15.4425 301.025 14.5425 301.025Z" fill="#60A5FA"/>
<path d="M758.743 212.025H303.743C301.243 212.025 299.143 209.925 299.143 207.425V127.725C299.143 125.225 301.243 123.125 303.743 123.125H758.743C761.243 123.125 763.342 125.225 763.342 127.725V207.425C763.342 209.925 761.343 212.025 758.743 212.025Z" stroke="#60A5FA" stroke-width="1.8" stroke-miterlimit="10" stroke-linecap="round" stroke-linejoin="round"/>
<path d="M758.743 310.925H303.743C301.243 310.925 299.143 308.825 299.143 306.325V226.625C299.143 224.125 301.243 222.025 303.743 222.025H758.743C761.243 222.025 763.342 224.125 763.342 226.625V306.325C763.342 308.925 761.343 310.925 758.743 310.925Z" stroke="#60A5FA" stroke-width="1.8" stroke-miterlimit="10" stroke-linecap="round" stroke-linejoin="round"/>
<path d="M339.742 161.725H329.842V212.025H339.742V161.725Z" stroke="#60A5FA" stroke-width="1.8" stroke-miterlimit="10" stroke-linecap="round" stroke-linejoin="round"/>
<path d="M349.943 175.425H339.642V212.025H349.943V175.425Z" stroke="#60A5FA" stroke-width="1.8" stroke-miterlimit="10" stroke-linecap="round" stroke-linejoin="round"/>
<path d="M638.042 260.525H628.142V310.825H638.042V260.525Z" stroke="#60A5FA" stroke-width="1.8" stroke-miterlimit="10" stroke-linecap="round" stroke-linejoin="round"/>
<path d="M648.342 274.225H638.042V310.825H648.342V274.225Z" stroke="#60A5FA" stroke-width="1.8" stroke-miterlimit="10" stroke-linecap="round" stroke-linejoin="round"/>
<path d="M617.943 260.525H608.042V310.825H617.943V260.525Z" stroke="#60A5FA" stroke-width="1.8" stroke-miterlimit="10" stroke-linecap="round" stroke-linejoin="round"/>
<path d="M608.181 262.399L598.74 259.418L583.595 307.384L593.036 310.365L608.181 262.399Z" stroke="#60A5FA" stroke-width="1.8" stroke-miterlimit="10" stroke-linecap="round" stroke-linejoin="round"/>
<path d="M628.242 274.225H617.943V310.825H628.242V274.225Z" stroke="#60A5FA" stroke-width="1.8" stroke-miterlimit="10" stroke-linecap="round" stroke-linejoin="round"/>
<path d="M504.542 161.725H494.642V212.025H504.542V161.725Z" stroke="#60A5FA" stroke-width="1.8" stroke-miterlimit="10" stroke-linecap="round" stroke-linejoin="round"/>
<path d="M514.842 175.425H504.542V212.025H514.842V175.425Z" stroke="#60A5FA" stroke-width="1.8" stroke-miterlimit="10" stroke-linecap="round" stroke-linejoin="round"/>
<path d="M406.742 161.725H396.842V212.025H406.742V161.725Z" stroke="#60A5FA" stroke-width="1.8" stroke-miterlimit="10" stroke-linecap="round" stroke-linejoin="round"/>
<path d="M396.977 163.583L387.537 160.602L372.391 208.568L381.832 211.549L396.977 163.583Z" stroke="#60A5FA" stroke-width="1.8" stroke-miterlimit="10" stroke-linecap="round" stroke-linejoin="round"/>
<path d="M417.042 175.425H406.742V212.025H417.042V175.425Z" stroke="#60A5FA" stroke-width="1.8" stroke-miterlimit="10" stroke-linecap="round" stroke-linejoin="round"/>
<path d="M637.942 168.325L639.042 153.425C639.142 152.425 638.342 151.625 637.342 151.625H633.042H628.742C627.742 151.625 627.042 152.425 627.042 153.425L628.142 168.325C628.142 168.325 619.142 174.125 619.242 178.925C619.342 182.625 621.542 200.325 622.542 208.125C622.842 210.325 624.642 211.925 626.842 211.925H633.042H639.242C641.442 211.925 643.242 210.325 643.542 208.125C644.542 200.325 646.742 182.625 646.842 178.925C646.942 174.025 637.942 168.325 637.942 168.325Z" fill="#60A5FA"/>
<path d="M598.042 168.325L599.142 153.425C599.242 152.425 598.442 151.625 597.442 151.625H593.142H588.842C587.842 151.625 587.142 152.425 587.142 153.425L588.242 168.325C588.242 168.325 579.242 174.125 579.342 178.925C579.442 182.625 581.642 200.325 582.642 208.125C582.942 210.325 584.742 211.925 586.942 211.925H593.142H599.342C601.542 211.925 603.342 210.325 603.642 208.125C604.642 200.325 606.842 182.625 606.942 178.925C607.042 174.025 598.042 168.325 598.042 168.325Z" fill="#60A5FA"/>
<path d="M-1.25751 405.325H954.542" stroke="#60A5FA" stroke-width="1.8" stroke-miterlimit="10" stroke-linecap="round" stroke-linejoin="round"/>
</g>
<path d="M220.042 178.225L116.243 201.725C113.343 202.325 110.543 200.425 110.143 197.525L89.2425 64.825C88.7425 61.425 91.6425 58.425 95.0425 59.025L203.043 77.125C205.143 77.525 206.843 79.125 207.243 81.225L223.143 173.525C223.443 175.725 222.143 177.725 220.042 178.225Z" fill="#63737A"/>
<path d="M225.843 178.125L121.343 201.725C118.443 202.425 115.643 200.425 115.143 197.525L94.0425 63.925C93.5425 60.525 96.4425 57.525 99.9425 58.125L208.643 76.325C210.743 76.725 212.443 78.325 212.843 80.525L228.943 173.425C229.343 175.525 227.943 177.625 225.843 178.125Z" fill="#22272E"/>
<path d="M138.743 88.225C139.243 91.125 137.443 93.225 134.743 93.025C132.043 92.825 129.342 90.225 128.842 87.225C128.342 84.225 130.242 82.125 132.942 82.425C135.742 82.725 138.243 85.325 138.743 88.225Z" fill="#FFE779"/>
<path d="M141.743 106.525L131.943 106.125C129.643 106.025 127.543 103.925 127.143 101.525C126.243 96.125 129.743 92.025 134.643 92.425C139.443 92.825 143.943 97.325 144.843 102.525C145.243 104.825 143.843 106.625 141.743 106.525Z" fill="#FFE779"/>
<path d="M148.143 175.125C146.243 175.425 144.443 173.925 144.043 171.725L136.043 122.225C135.743 120.125 137.042 118.325 138.942 118.325C140.842 118.325 142.643 120.025 143.043 122.125L150.942 170.625C151.242 172.825 150.043 174.825 148.143 175.125Z" fill="#63737A"/>
<path d="M139.543 144.325L143.942 171.725C144.342 173.925 146.143 175.425 148.043 175.125C149.943 174.825 151.142 172.825 150.842 170.725L146.442 143.825C146.142 141.725 144.242 140.125 142.342 140.225C140.542 140.325 139.243 142.125 139.543 144.325Z" fill="#3B82F6"/>
<path d="M171.342 91.425C171.742 94.025 170.343 96.025 168.143 95.825C165.943 95.625 163.743 93.325 163.243 90.625C162.843 87.925 164.243 86.025 166.543 86.225C168.743 86.425 170.842 88.725 171.342 91.425Z" fill="#F4C2C9"/>
<path d="M174.043 107.925L166.143 107.625C164.343 107.525 162.543 105.725 162.143 103.525C161.343 98.625 164.043 94.925 168.043 95.225C171.943 95.525 175.743 99.625 176.543 104.325C176.843 106.425 175.743 108.025 174.043 107.925Z" fill="#F4C2C9"/>
<path d="M180.443 169.825C178.943 170.125 177.343 168.725 177.043 166.725L169.643 122.125C169.343 120.225 170.343 118.625 171.943 118.625C173.543 118.625 175.043 120.225 175.343 122.125L182.643 165.825C182.943 167.825 182.043 169.625 180.443 169.825Z" fill="#63737A"/>
<path d="M172.743 140.725L177.043 166.525C177.343 168.325 178.743 169.825 180.143 169.825C181.843 169.725 182.943 167.925 182.643 165.825L178.342 140.325C178.042 138.425 176.543 136.925 174.943 137.025C173.443 137.225 172.443 138.825 172.743 140.725Z" fill="#3B82F6"/>
<path d="M198.143 94.025C198.543 96.425 197.443 98.225 195.643 98.025C193.843 97.825 191.943 95.725 191.543 93.325C191.143 90.925 192.343 89.125 194.143 89.325C195.943 89.525 197.743 91.625 198.143 94.025Z" fill="#3B82F6"/>
<path d="M200.743 109.125L194.143 108.825C192.643 108.725 191.143 107.125 190.743 105.125C189.943 100.625 192.143 97.325 195.543 97.525C198.843 97.825 202.043 101.525 202.743 105.725C203.043 107.725 202.143 109.225 200.743 109.125Z" fill="#3B82F6"/>
<path d="M207.043 165.525C205.743 165.725 204.443 164.425 204.143 162.725L197.243 122.225C196.943 120.425 197.743 119.025 199.043 119.025C200.343 119.025 201.642 120.425 201.942 122.125L208.743 161.925C209.143 163.725 208.343 165.225 207.043 165.525Z" fill="#63737A"/>
<path d="M202.243 151.225L204.143 162.525C204.443 164.225 205.543 165.525 206.843 165.525C208.243 165.525 209.143 163.825 208.843 161.925L206.943 150.725C206.643 149.025 205.343 147.625 204.143 147.825C202.743 147.925 201.943 149.425 202.243 151.225Z" fill="#3B82F6"/>
<path d="M615.942 219.925L517.442 208.425C514.542 208.125 512.442 205.525 512.642 202.625L520.242 95.425C520.442 92.825 522.442 90.725 525.142 90.425L627.742 79.625C630.442 79.325 632.642 81.525 632.442 84.225L620.742 216.025C620.442 218.425 618.242 220.225 615.942 219.925Z" fill="#63737A"/>
<path d="M611.642 219.925L512.642 208.325C509.742 208.025 507.642 205.425 507.842 202.525L515.442 94.725C515.642 92.125 517.642 89.925 520.342 89.625L623.442 78.725C626.142 78.425 628.442 80.725 628.142 83.325L616.442 215.825C616.242 218.425 614.042 220.225 611.642 219.925Z" fill="#22272E"/>
<path d="M549.442 118.225L525.142 119.425C524.142 119.425 523.342 118.625 523.442 117.625L524.442 103.125C524.542 102.325 525.142 101.625 525.942 101.625L550.342 99.625C551.342 99.525 552.242 100.425 552.142 101.425L550.942 116.725C550.942 117.525 550.242 118.225 549.442 118.225Z" fill="#63737A"/>
<path d="M562.142 128.925L559.443 163.825L520.242 162.625L520.742 155.225L526.142 148.025C527.142 146.625 529.243 146.425 530.443 147.625C531.843 149.025 534.242 148.525 535.042 146.825L539.342 137.925C540.242 136.025 542.842 135.725 544.242 137.425L549.342 143.825C550.642 145.425 553.142 145.225 554.142 143.425L562.142 128.925Z" fill="#FFE779"/>
<path d="M524.142 197.325C523.342 197.225 522.642 196.525 522.742 195.725L523.542 184.525C523.642 183.725 524.342 183.025 525.142 183.125C526.042 183.225 526.642 183.925 526.542 184.825L525.742 196.025C525.742 196.725 525.042 197.425 524.142 197.325Z" fill="#FFE779"/>
<path d="M537.142 197.025L538.342 181.125C538.442 180.325 539.143 179.625 539.943 179.725H540.142C541.042 179.825 541.642 180.525 541.542 181.425L540.342 197.325C540.242 198.225 539.542 198.825 538.642 198.725H538.443C537.743 198.625 537.142 197.825 537.142 197.025Z" fill="#FFE779"/>
<path d="M551.542 198.225L553.142 177.925C553.242 177.025 554.043 176.325 554.943 176.325C555.943 176.325 556.642 177.225 556.542 178.225L554.943 198.525C554.843 199.525 554.042 200.225 553.042 200.125C552.242 199.925 551.542 199.125 551.542 198.225Z" fill="#FFE779"/>
<path d="M565.943 199.525L568.042 174.525C568.142 173.625 568.942 172.925 569.842 172.925H570.042C571.042 172.925 571.742 173.825 571.642 174.825L569.542 199.825C569.442 200.825 568.642 201.525 567.642 201.425H567.443C566.543 201.325 565.843 200.425 565.943 199.525Z" fill="#3B82F6"/>
<path d="M580.342 200.925L582.842 171.225C582.942 170.325 583.742 169.625 584.642 169.625H585.042C586.042 169.625 586.742 170.525 586.642 171.525L584.142 201.225C584.042 202.225 583.242 202.925 582.242 202.825H581.942C580.942 202.625 580.242 201.825 580.342 200.925Z" fill="#3B82F6"/>
<path d="M596.842 204.125H596.342C595.442 204.025 594.742 203.225 594.742 202.225L597.642 167.825C597.742 166.925 598.543 166.225 599.443 166.225H599.943C600.943 166.225 601.642 167.125 601.642 168.125L598.742 202.525C598.642 203.525 597.742 204.225 596.842 204.125Z" fill="#F4C2C9"/>
<path d="M597.543 133.725L601.842 141.225C598.242 146.025 593.743 149.025 589.043 149.025C579.843 149.025 573.543 137.525 574.743 123.325C575.843 109.025 584.143 96.825 593.543 96.125C598.343 95.725 602.443 98.425 605.243 103.025L599.642 110.925C598.042 108.125 595.542 106.525 592.642 106.625C587.042 107.025 581.943 114.325 581.243 123.025C580.543 131.625 584.443 138.625 589.943 138.525C592.643 138.525 595.343 136.725 597.543 133.725Z" fill="#3B82F6"/>
<path d="M608.642 122.025C607.942 129.525 605.442 136.425 601.842 141.325L597.542 133.825C599.642 130.925 601.242 126.825 601.542 122.325C601.942 117.825 601.043 113.825 599.443 111.025L605.042 103.125C607.842 107.725 609.242 114.425 608.642 122.025Z" fill="#FFE779"/>
<path d="M614.842 89.725C614.942 88.825 614.542 88.125 613.842 88.125C613.242 88.225 612.642 88.925 612.642 89.825C612.542 90.725 612.942 91.425 613.542 91.425C614.142 91.425 614.742 90.725 614.842 89.725Z" fill="#63737A"/>
<path d="M620.942 89.225C621.042 88.325 620.542 87.625 619.942 87.625C619.342 87.725 618.742 88.425 618.642 89.425C618.542 90.325 619.042 91.025 619.642 91.025C620.342 90.925 620.842 90.125 620.942 89.225Z" fill="#63737A"/>
<path d="M489.442 128.625L456.742 130.625C455.042 130.725 453.642 129.325 453.742 127.625L458.042 63.125C458.142 61.425 459.442 60.025 461.142 59.725L494.542 53.725C496.342 53.425 497.942 54.825 497.842 56.625L492.942 125.025C492.842 127.025 491.342 128.525 489.442 128.625Z" fill="#22272E"/>
<path d="M486.942 127.925L454.242 129.925C452.542 130.025 451.142 128.625 451.242 126.925L455.542 62.425C455.642 60.725 456.942 59.325 458.642 59.025L492.042 53.025C493.842 52.725 495.442 54.125 495.342 55.925L490.442 124.325C490.342 126.325 488.842 127.825 486.942 127.925Z" fill="#3B82F6"/>
<path d="M475.042 61.825L471.042 62.525C470.642 62.625 470.342 62.325 470.342 61.825C470.342 61.425 470.742 61.025 471.142 60.925L475.142 60.225C475.542 60.125 475.842 60.425 475.842 60.925C475.842 61.425 475.442 61.825 475.042 61.825Z" fill="#22272E"/>
<path d="M478.242 61.325L477.842 61.425C477.442 61.525 477.142 61.225 477.142 60.725C477.142 60.325 477.543 59.825 477.943 59.825L478.342 59.725C478.742 59.625 479.042 59.925 479.042 60.425C479.042 60.825 478.742 61.225 478.242 61.325Z" fill="#22272E"/>
<path d="M472.642 69.625L462.542 71.225C461.742 71.325 461.142 70.725 461.142 69.825C461.242 68.925 461.942 68.125 462.742 68.025L472.842 66.425C473.742 66.325 474.342 66.925 474.242 67.825C474.142 68.725 473.442 69.525 472.642 69.625Z" fill="#22272E"/>
<path d="M485.443 87.825L461.142 90.925C460.342 91.025 459.742 90.425 459.742 89.625L460.642 76.625C460.642 76.025 461.142 75.625 461.642 75.525L486.042 71.825C486.842 71.725 487.443 72.325 487.443 73.125L486.443 86.725C486.443 87.225 486.043 87.725 485.443 87.825Z" fill="#FFE779"/>
<path d="M470.443 100.125L460.342 101.225C459.542 101.325 458.943 100.725 458.943 99.825C459.043 98.925 459.742 98.125 460.542 98.125L470.642 97.025C471.442 96.925 472.142 97.525 472.042 98.425C472.042 99.225 471.343 100.025 470.443 100.125Z" fill="#22272E"/>
<path d="M468.943 122.425L458.943 123.125C458.143 123.225 457.542 122.525 457.542 121.625C457.642 120.725 458.342 120.025 459.142 119.925L469.142 119.125C469.942 119.025 470.642 119.725 470.542 120.625C470.542 121.525 469.843 122.325 468.943 122.425Z" fill="#F4C2C9"/>
<path d="M468.142 115.125L459.443 115.825C458.743 115.925 458.042 115.325 458.142 114.525L458.642 106.525C458.642 105.925 459.142 105.425 459.742 105.425L468.542 104.525C469.242 104.425 469.942 105.025 469.842 105.825L469.242 114.025C469.142 114.625 468.742 115.025 468.142 115.125Z" fill="#FFE779"/>
<path d="M483.542 113.825L474.242 114.625C473.542 114.725 472.843 114.025 472.943 113.325L473.542 105.025C473.542 104.425 474.042 103.925 474.642 103.925L483.943 103.025C484.643 102.925 485.342 103.525 485.242 104.325L484.642 112.725C484.642 113.325 484.142 113.725 483.542 113.825Z" fill="white"/>
<path d="M190.543 46.625C200.705 46.625 208.943 38.387 208.943 28.225C208.943 18.063 200.705 9.82501 190.543 9.82501C180.38 9.82501 172.143 18.063 172.143 28.225C172.143 38.387 180.38 46.625 190.543 46.625Z" stroke="#3B82F6" stroke-width="1.8" stroke-miterlimit="10" stroke-linecap="round" stroke-linejoin="round"/>
<path d="M183.643 27.725C183.043 27.025 182.743 26.125 182.743 25.025C182.743 23.925 183.043 23.025 183.643 22.325C184.243 21.625 185.043 21.325 186.043 21.325C187.043 21.325 187.843 21.625 188.443 22.325C189.043 23.025 189.342 23.925 189.342 25.025C189.342 26.125 189.043 27.125 188.443 27.725C187.843 28.425 187.043 28.725 186.043 28.725C185.043 28.725 184.243 28.425 183.643 27.725ZM187.342 26.725C187.642 26.325 187.743 25.725 187.743 24.925C187.743 24.125 187.642 23.625 187.342 23.125C187.042 22.725 186.643 22.525 186.143 22.525C185.643 22.525 185.243 22.725 184.943 23.125C184.643 23.525 184.443 24.125 184.443 24.925C184.443 25.625 184.643 26.225 184.943 26.725C185.243 27.125 185.643 27.325 186.143 27.325C186.543 27.325 187.042 27.125 187.342 26.725ZM194.543 21.325H195.443C195.743 21.325 195.943 21.725 195.743 21.925L186.943 34.825C186.843 34.925 186.743 35.025 186.643 35.025H185.743C185.443 35.025 185.243 34.625 185.443 34.425L194.243 21.525C194.243 21.425 194.343 21.325 194.543 21.325ZM192.743 34.225C192.143 33.525 191.842 32.625 191.842 31.525C191.842 30.425 192.143 29.525 192.743 28.825C193.343 28.125 194.143 27.825 195.143 27.825C196.143 27.825 196.943 28.125 197.543 28.825C198.143 29.525 198.443 30.425 198.443 31.525C198.443 32.625 198.143 33.525 197.543 34.225C196.943 34.925 196.143 35.225 195.143 35.225C194.143 35.225 193.343 34.825 192.743 34.225ZM196.342 33.125C196.642 32.725 196.743 32.125 196.743 31.425C196.743 30.725 196.642 30.125 196.342 29.725C196.042 29.225 195.442 29.025 194.842 29.025C194.442 29.125 194.042 29.325 193.842 29.625C193.542 30.025 193.342 30.625 193.342 31.425C193.342 32.225 193.542 32.725 193.842 33.225C194.142 33.625 194.442 33.825 194.842 33.825C195.442 33.925 196.042 33.625 196.342 33.125Z" fill="#3B82F6"/>
<path d="M442.642 53.525C422.442 66.325 400.942 65.325 395.642 52.525C390.942 41.325 400.943 24.925 417.243 15.025C433.243 5.225 452.042 3.725 460.342 12.325C469.642 22.025 462.342 40.925 442.642 53.525Z" fill="#22272E"/>
<path d="M440.142 49.425C419.942 62.225 398.442 61.225 393.142 48.425C388.442 37.225 398.443 20.825 414.743 10.925C430.743 1.12499 449.542 -0.375004 457.842 8.225C467.142 17.925 459.842 36.825 440.142 49.425Z" fill="#FFE779"/>
<path d="M434.443 40.925C422.343 48.525 409.143 48.325 405.443 40.825C401.943 33.925 408.042 23.425 418.642 16.925C429.142 10.525 441.242 9.72499 446.142 15.525C451.342 21.825 446.443 33.325 434.443 40.925Z" fill="#3B82F6"/>
<path d="M429.342 33.125C424.542 36.125 419.242 36.125 417.542 33.325C415.942 30.525 418.242 26.125 422.842 23.325C427.342 20.525 432.442 20.325 434.342 22.925C436.242 25.525 434.042 30.125 429.342 33.125Z" fill="#F4C2C9"/>
<path d="M424.542 23.625C422.742 24.725 420.342 24.125 419.142 22.325L409.542 3.22501C409.042 2.22501 409.442 1.02501 410.342 0.425008C411.342 -0.174992 412.542 0.125014 413.242 1.02501L425.742 18.325C426.942 20.125 426.342 22.525 424.542 23.625Z" fill="#22272E"/>
<path d="M411.942 6.92498L407.642 6.62498C406.442 6.52498 405.742 7.92499 406.442 8.82499C408.542 11.625 411.342 13.725 414.542 14.925L416.542 15.725C416.742 15.825 417.042 15.525 416.842 15.325L412.942 7.62498C412.842 7.22498 412.442 7.02498 411.942 6.92498Z" fill="#3B82F6"/>
<path d="M415.542 4.725L417.342 0.825C417.842 -0.275 419.342 -0.275 419.842 0.825C421.342 3.925 421.943 7.42501 421.443 10.825L421.142 13.025C421.142 13.225 420.742 13.325 420.642 13.125L415.642 6.125C415.442 5.725 415.342 5.225 415.542 4.725Z" fill="#3B82F6"/>
<path d="M424.042 22.825L427.242 28.225" stroke="#22272E" stroke-width="1.8" stroke-miterlimit="10" stroke-linecap="round" stroke-linejoin="round"/>
<path d="M335.543 462.725C333.343 458.825 312.043 462.725 312.043 462.725C312.043 462.725 312.443 471.025 312.643 477.325C319.543 480.425 327.842 480.725 335.342 478.625C335.242 472.125 335.543 462.725 335.543 462.725Z" fill="#F4C2C9"/>
<path d="M312.543 477.325C312.643 480.225 312.643 482.625 312.643 483.625C312.643 484.825 311.243 487.025 310.743 490.425C310.343 492.925 310.743 496.325 310.243 499.325C309.743 502.925 309.143 506.525 308.843 509.925C307.943 519.825 313.043 520.925 318.743 521.625C324.443 522.225 343.343 522.825 343.943 517.325C344.543 511.825 339.143 501.625 337.943 496.925C336.743 492.225 336.043 486.925 335.443 483.825C335.343 482.925 335.243 481.025 335.243 478.625C327.743 480.725 319.443 480.325 312.543 477.325Z" fill="#FFE779"/>
<path d="M344.043 517.225C343.443 522.725 324.543 522.125 318.843 521.525C313.143 520.925 308.043 519.725 308.943 509.825C309.243 506.525 309.743 502.825 310.343 499.225C310.843 496.225 310.343 492.825 310.843 490.325C311.243 487.625 312.243 485.725 312.643 484.425C313.043 487.025 315.043 487.825 315.243 493.525C315.543 499.425 314.943 502.425 321.843 500.525C330.943 498.025 334.443 501.125 336.343 499.625C337.943 498.225 337.343 493.425 337.243 492.525C337.543 493.925 337.843 495.425 338.143 496.825C339.143 501.525 344.643 511.825 344.043 517.225Z" fill="#22272E"/>
<path d="M332.943 471.725C333.743 471.525 334.643 471.225 335.443 470.925C335.543 466.525 335.643 462.625 335.643 462.625C333.443 458.725 312.143 462.625 312.143 462.625C312.143 462.625 312.243 465.625 312.443 469.425C318.643 471.825 325.743 473.325 332.943 471.725Z" fill="#896068"/>
<path d="M327.842 504.725C330.935 504.725 333.443 503.113 333.443 501.125C333.443 499.137 330.935 497.525 327.842 497.525C324.75 497.525 322.243 499.137 322.243 501.125C322.243 503.113 324.75 504.725 327.842 504.725Z" fill="white"/>
<path d="M370.142 479.825C370.642 483.725 370.943 487.125 370.743 488.025C370.243 490.125 368.642 498.925 367.342 502.725C366.042 506.525 358.643 517.325 363.543 520.625C368.443 524.025 393.442 521.925 396.142 519.625C398.842 517.325 397.943 510.925 396.943 502.725C395.943 494.525 392.943 486.125 392.943 484.925C392.943 484.525 392.843 481.425 392.743 477.625C385.943 481.025 378.042 482.325 370.142 479.825Z" fill="#FFE779"/>
<path d="M368.342 467.225C368.342 467.225 369.442 474.025 370.142 479.825C378.042 482.325 385.943 481.025 392.743 477.625C392.443 470.425 392.042 460.425 391.642 459.825C391.142 458.925 370.542 458.525 368.342 467.225Z" fill="#F4C2C9"/>
<path d="M396.243 519.625C393.543 521.925 368.542 524.025 363.642 520.625C358.742 517.225 366.143 506.425 367.443 502.725C368.343 500.025 369.442 494.625 370.142 491.025C369.942 492.225 368.342 501.625 370.142 502.225C372.042 502.825 376.842 498.925 383.142 500.325C389.342 501.625 392.642 502.625 392.642 498.725C392.642 494.825 391.442 488.425 392.042 487.325C392.542 486.125 393.042 485.025 393.042 485.025C393.042 486.225 396.042 494.625 397.042 502.825C398.042 510.925 398.943 517.225 396.243 519.625Z" fill="#22272E"/>
<path d="M392.443 470.725C392.243 465.325 391.942 460.225 391.642 459.825C391.142 458.925 370.443 458.525 368.243 467.225C368.243 467.225 368.643 470.025 369.243 473.525C377.543 475.325 385.343 473.825 392.443 470.725Z" fill="#896068"/>
<path d="M378.642 505.825C381.735 505.825 384.243 504.213 384.243 502.225C384.243 500.237 381.735 498.625 378.642 498.625C375.55 498.625 373.043 500.237 373.043 502.225C373.043 504.213 375.55 505.825 378.642 505.825Z" fill="white"/>
<path d="M388.743 211.825C388.743 211.825 398.443 229.525 392.943 273.525C387.443 317.525 384.642 328.625 385.642 331.425C386.642 334.225 391.543 355.325 391.843 387.925C392.143 420.525 392.843 436.125 395.743 445.225C398.643 454.325 399.943 461.125 392.343 466.525C384.843 472.025 371.543 471.225 365.343 468.325C359.143 465.425 358.843 460.525 359.343 449.625C359.843 438.725 354.443 404.925 349.943 384.425C347.243 372.025 344.943 357.725 343.443 347.425C342.443 340.625 341.943 335.625 341.943 334.025C341.943 330.125 335.943 272.725 335.943 269.825C335.943 266.925 329.443 264.925 327.843 252.625C326.243 240.425 329.143 211.925 329.143 211.925C329.143 211.925 383.243 204.125 388.743 211.825Z" fill="#22272E"/>
<path d="M297.743 208.425C297.743 208.425 286.843 234.625 293.043 282.225C299.243 329.825 300.043 334.425 300.343 336.525C300.643 338.625 300.843 374.225 303.743 405.125C306.643 436.025 300.843 451.925 303.743 459.425C306.643 466.925 315.943 468.825 322.443 468.525C328.943 468.225 341.142 465.925 341.142 453.925C341.142 441.925 339.542 423.025 341.142 397.825C342.742 372.625 345.142 346.925 345.842 334.925C346.642 322.925 353.842 253.325 355.142 243.425C356.442 233.525 351.843 217.425 333.743 211.125C315.643 205.025 297.743 208.425 297.743 208.425Z" fill="#22272E"/>
<path d="M291.143 250.625C291.143 250.625 297.043 249.225 299.143 241.825C301.243 234.425 301.743 229.425 301.743 229.425" stroke="#63737A" stroke-width="1.8" stroke-miterlimit="10" stroke-linecap="round" stroke-linejoin="round"/>
<path d="M394.443 253.225C394.443 253.225 386.742 249.625 384.342 241.425C381.942 233.325 382.243 228.625 382.243 228.625" stroke="#63737A" stroke-width="1.8" stroke-miterlimit="10" stroke-linecap="round" stroke-linejoin="round"/>
<path d="M322.342 262.025C328.042 262.225 335.743 268.625 335.743 268.625C335.743 268.625 338.543 266.125 344.443 263.025" stroke="#63737A" stroke-width="1.8" stroke-miterlimit="10" stroke-linecap="round" stroke-linejoin="round"/>
<path d="M343.443 347.325C342.443 340.525 341.943 335.525 341.943 333.925C341.943 330.025 335.943 272.625 335.943 269.725C335.943 266.825 329.442 264.825 327.842 252.525" stroke="#63737A" stroke-width="1.8" stroke-miterlimit="10" stroke-linecap="round" stroke-linejoin="round"/>
<path d="M361.309 35.8114C372.709 38.7114 378.109 45.2113 377.609 61.6113C377.109 78.0113 374.909 83.9113 382.709 93.0113C390.509 102.011 392.609 114.911 377.809 123.011C363.009 131.111 330.609 133.211 314.509 123.011C298.409 112.811 296.509 101.911 301.309 91.2113C306.109 80.5113 318.909 73.5114 316.109 65.8114C313.309 58.0114 316.709 66.5113 316.709 66.5113C316.709 66.5113 308.309 60.4113 309.009 48.2113C309.609 36.0113 324.609 31.4113 332.409 31.0113C336.409 30.8113 340.709 33.3114 346.609 34.3114C352.509 35.1114 358.409 35.1114 361.309 35.8114Z" fill="#22272E"/>
<path d="M234.143 71.925C234.143 71.925 233.243 68.925 232.843 60.525C232.743 58.525 235.943 54.125 236.343 52.825C236.743 51.525 239.743 52.025 238.943 56.425C238.143 60.825 241.243 68.925 240.343 72.025C239.543 75.225 234.143 73.325 234.143 71.925Z" fill="#F4C2C9"/>
<path d="M225.943 45.225L252.943 101.025C253.743 102.725 255.443 103.825 257.343 103.725L297.843 103.025C299.643 103.025 300.743 101.225 300.043 99.525L276.243 43.525C275.443 41.725 273.643 40.525 271.743 40.625L228.143 41.625C226.343 41.725 225.143 43.525 225.943 45.225Z" fill="#22272E"/>
<path d="M241.343 37.525L256.343 36.925C257.643 36.925 258.843 37.725 259.243 39.025L259.843 41.025C260.043 41.625 259.543 42.325 258.943 42.325L240.843 42.825C240.343 42.825 239.943 42.425 239.843 42.025L239.543 39.825C239.343 38.625 240.243 37.525 241.343 37.525Z" fill="#3B82F6"/>
<path d="M280.743 136.825L277.342 139.625C277.342 139.625 272.843 125.425 268.743 115.725C264.743 106.025 262.043 93.725 262.143 92.325C262.243 90.925 263.443 86.925 260.743 82.725C258.143 78.625 254.943 77.025 254.943 77.025C254.943 77.025 257.243 75.925 261.543 74.125C265.843 72.225 263.843 70.325 261.243 70.625C258.743 70.925 252.143 71.825 252.143 71.825C252.143 71.825 255.343 69.325 257.243 67.825C259.143 66.325 263.143 64.725 262.143 63.125C261.243 61.725 257.043 63.225 255.143 63.825C253.243 64.425 246.543 67.725 246.543 67.725C246.543 67.725 250.542 63.025 252.342 60.725C254.142 58.425 258.942 56.225 258.342 53.925C257.742 51.625 251.843 54.925 249.043 56.625C246.243 58.325 240.943 63.725 240.943 63.725C240.943 63.725 241.142 58.525 241.342 56.225C241.542 53.925 242.943 48.125 241.243 46.725C239.043 44.925 237.843 50.525 236.743 55.225C235.643 59.925 233.043 69.425 233.643 72.225C234.243 75.025 237.643 78.425 240.543 82.225C243.443 86.025 246.543 90.525 247.043 91.825C247.543 93.225 251.243 153.025 254.543 161.225C257.843 169.425 265.443 183.525 297.043 158.525C297.043 158.525 299.943 141.025 294.143 136.325C288.243 131.825 280.743 136.825 280.743 136.825Z" fill="#F4C2C9"/>
<path d="M319.443 104.725C319.443 104.725 311.743 106.125 302.043 116.525C292.343 126.925 280.743 136.825 280.743 136.825C280.743 136.825 289.743 156.825 295.143 162.825C295.143 162.825 314.043 150.225 321.443 142.825C328.943 135.425 330.143 107.325 319.443 104.725Z" fill="#3B82F6"/>
<path d="M284.743 133.325C284.743 133.325 291.043 148.525 299.443 159.825" stroke="#22272E" stroke-width="1.8" stroke-miterlimit="10" stroke-linecap="round" stroke-linejoin="round"/>
<path d="M277.342 139.625C277.342 139.625 278.843 143.225 280.143 148.425" stroke="#896068" stroke-width="1.8" stroke-miterlimit="10" stroke-linecap="round" stroke-linejoin="round"/>
<path d="M252.143 71.825C252.143 71.825 251.143 72.025 249.943 72.425C249.343 72.625 248.343 73.025 247.743 73.625" stroke="#896068" stroke-width="1.8" stroke-miterlimit="10" stroke-linecap="round" stroke-linejoin="round"/>
<path d="M254.842 77.025C254.842 77.025 253.443 77.725 253.043 78.125" stroke="#896068" stroke-width="1.8" stroke-miterlimit="10" stroke-linecap="round" stroke-linejoin="round"/>
<path d="M246.543 67.725C246.543 67.725 244.843 68.825 244.243 69.825" stroke="#896068" stroke-width="1.8" stroke-miterlimit="10" stroke-linecap="round" stroke-linejoin="round"/>
<path d="M240.943 63.825C240.943 63.825 239.343 64.925 238.643 65.825" stroke="#896068" stroke-width="1.8" stroke-miterlimit="10" stroke-linecap="round" stroke-linejoin="round"/>
<path d="M247.243 93.125C247.243 93.125 251.143 98.025 262.443 94.325C262.443 94.325 263.643 98.825 263.743 100.025C263.743 100.025 254.342 103.825 247.842 99.225C247.742 99.225 247.143 94.125 247.243 93.125Z" fill="#22272E"/>
<path d="M252.192 102.004C253.816 101.672 254.709 99.3412 254.189 96.7981C253.668 94.2551 251.93 92.463 250.307 92.7953C248.684 93.1277 247.79 95.4587 248.311 98.0017C248.831 100.545 250.569 102.337 252.192 102.004Z" fill="white"/>
<path d="M315.443 107.325C318.243 105.125 321.042 102.425 345.842 101.625C374.342 100.725 387.942 104.125 391.842 120.425C395.743 136.825 379.342 174.725 379.342 179.125C379.342 183.525 389.643 204.925 390.842 214.625C390.842 214.625 376.942 229.925 341.842 229.425C306.743 228.925 295.043 214.625 295.043 210.925C295.043 207.225 307.243 186.125 308.543 176.825C309.843 167.425 297.643 155.725 298.143 143.825C298.643 131.825 309.043 121.725 309.643 119.125C311.043 114.325 312.443 109.625 315.443 107.325Z" fill="#FFE779"/>
<path d="M328.743 111.425C328.743 111.425 328.643 131.425 337.243 145.625C337.243 145.625 352.343 130.225 357.543 114.625C357.543 114.625 345.743 118.425 338.743 115.925C331.743 113.325 328.743 111.425 328.743 111.425Z" fill="#3B82F6"/>
<path d="M336.243 98.925C336.243 98.925 330.743 100.525 327.842 107.225C324.942 114.025 326.043 123.925 328.643 123.825C331.243 123.725 341.243 116.625 341.243 116.625C341.243 116.625 340.743 99.725 336.243 98.925Z" fill="white"/>
<path d="M341.142 116.725C341.142 116.725 343.742 120.125 346.642 123.925C349.542 127.725 352.343 131.925 359.543 120.325C366.743 108.725 362.143 100.825 357.943 98.925C353.643 97.125 340.542 113.025 341.142 116.725Z" fill="white"/>
<path d="M336.243 91.225C336.243 91.225 335.842 99.525 334.842 105.125C333.842 110.725 335.442 115.825 341.142 116.725C346.842 117.625 358.543 111.425 359.243 102.925C359.243 102.925 358.243 82.825 359.943 76.525C361.643 70.325 336.543 86.825 336.243 91.225Z" fill="#F4C2C9"/>
<path d="M353.943 90.925C350.243 96.825 342.642 97.325 335.842 97.425C335.642 99.625 335.343 102.025 335.043 104.125C343.643 103.725 352.143 99.325 353.943 90.925Z" fill="#896068"/>
<path d="M389.243 207.725C362.443 225.225 321.243 227.425 296.943 205.625" stroke="#F8AB5D" stroke-width="1.8" stroke-miterlimit="10" stroke-linecap="round" stroke-linejoin="round"/>
<path d="M337.243 145.625C337.243 145.625 329.443 155.925 327.443 162.825" stroke="#F8AB5D" stroke-width="1.8" stroke-miterlimit="10" stroke-linecap="round" stroke-linejoin="round"/>
<path d="M338.342 155.825C339.226 155.825 339.943 155.109 339.943 154.225C339.943 153.341 339.226 152.625 338.342 152.625C337.459 152.625 336.743 153.341 336.743 154.225C336.743 155.109 337.459 155.825 338.342 155.825Z" fill="#F8AB5D"/>
<path d="M334.743 163.625C335.626 163.625 336.342 162.909 336.342 162.025C336.342 161.141 335.626 160.425 334.743 160.425C333.859 160.425 333.143 161.141 333.143 162.025C333.143 162.909 333.859 163.625 334.743 163.625Z" fill="#F8AB5D"/>
<path d="M405.443 136.325C405.443 136.325 412.942 153.425 416.642 166.525C420.242 179.625 416.543 187.725 408.443 191.625C400.343 195.525 393.942 185.525 381.842 155.225C381.842 155.325 399.943 131.125 405.443 136.325Z" fill="#F4C2C9"/>
<path d="M396.243 185.725C396.243 185.725 401.243 195.925 412.543 194.825C423.843 193.825 451.142 186.025 456.342 181.625C461.643 177.325 459.042 165.525 454.142 165.025C449.242 164.525 434.842 166.025 426.642 166.125C422.542 166.125 419.342 166.325 416.342 166.925C414.942 167.225 413.643 167.625 412.443 168.125C411.043 168.725 409.643 169.525 408.243 170.525C403.243 174.325 396.243 185.725 396.243 185.725Z" fill="#F4C2C9"/>
<path d="M416.543 167.025C415.143 167.325 413.842 167.725 412.642 168.225C411.242 168.825 409.843 169.625 408.443 170.625" stroke="#896068" stroke-width="1.8" stroke-miterlimit="10" stroke-linecap="round" stroke-linejoin="round"/>
<path d="M370.142 113.325C372.242 107.925 378.343 104.425 383.243 106.325C387.243 107.925 392.343 110.925 396.443 116.825C404.143 128.125 411.642 148.525 411.642 148.525C411.642 148.525 403.642 154.125 383.142 161.225C383.142 161.225 376.742 150.525 373.142 141.825C370.742 136.125 366.642 122.525 370.142 113.325Z" fill="#3B82F6"/>
<path d="M380.943 155.925C380.943 155.925 396.342 152.025 409.342 142.925" stroke="#22272E" stroke-width="1.8" stroke-miterlimit="10" stroke-linecap="round" stroke-linejoin="round"/>
<path d="M422.542 170.425L490.342 163.525C492.042 163.325 493.543 164.525 493.743 166.225L500.642 220.225C500.842 221.825 499.843 223.325 498.243 223.625L432.042 237.925C430.242 238.325 428.542 237.125 428.342 235.325L419.842 174.025C419.542 172.225 420.742 170.625 422.542 170.425Z" fill="#3B82F6"/>
<path d="M438.343 191.325L483.643 184.825C484.743 184.625 485.643 185.425 485.843 186.425L490.243 212.425C490.443 213.425 489.743 214.425 488.743 214.625L443.043 223.925C441.943 224.125 440.843 223.425 440.743 222.325L436.643 193.625C436.543 192.525 437.243 191.525 438.343 191.325Z" stroke="#22272E" stroke-width="1.8" stroke-miterlimit="10" stroke-linecap="round" stroke-linejoin="round"/>
<path d="M475.743 185.925L481.043 216.225" stroke="#22272E" stroke-width="1.8" stroke-miterlimit="10" stroke-linecap="round" stroke-linejoin="round"/>
<path d="M445.342 198.525L468.642 194.925" stroke="#22272E" stroke-width="1.8" stroke-miterlimit="10" stroke-linecap="round" stroke-linejoin="round"/>
<path d="M447.342 206.725L470.642 202.225" stroke="#22272E" stroke-width="1.8" stroke-miterlimit="10" stroke-linecap="round" stroke-linejoin="round"/>
<path d="M448.943 214.525L472.243 210.025" stroke="#22272E" stroke-width="1.8" stroke-miterlimit="10" stroke-linecap="round" stroke-linejoin="round"/>
<path d="M480.342 192.225L481.842 193.325L483.543 190.125" stroke="#22272E" stroke-width="1.8" stroke-miterlimit="10" stroke-linecap="round" stroke-linejoin="round"/>
<path d="M481.642 199.025L483.142 200.125L484.943 197.025" stroke="#22272E" stroke-width="1.8" stroke-miterlimit="10" stroke-linecap="round" stroke-linejoin="round"/>
<path d="M482.943 206.325L484.443 207.425L486.142 204.325" stroke="#22272E" stroke-width="1.8" stroke-miterlimit="10" stroke-linecap="round" stroke-linejoin="round"/>
<path d="M435.243 181.525L434.842 179.025C434.742 178.325 435.242 177.625 436.042 177.525L446.542 176.325C447.242 176.225 447.942 176.725 448.042 177.425L448.342 179.625C448.442 180.325 447.943 181.025 447.243 181.125L436.842 182.525C436.042 182.725 435.343 182.225 435.243 181.525Z" fill="#FFE779"/>
<path d="M474.943 163.225C473.443 161.625 472.642 161.025 466.842 160.625C464.842 160.525 461.242 160.725 458.342 160.825C456.942 160.825 456.043 160.525 455.043 160.625C452.043 161.125 448.542 164.625 446.842 165.825C445.042 167.025 442.043 168.525 442.043 168.525L451.943 167.525C452.543 167.425 453.143 167.725 453.443 168.325C453.943 169.325 454.842 171.125 455.642 173.525C456.842 177.325 458.142 182.125 459.842 180.925C460.842 180.225 460.843 177.025 460.543 174.825C460.543 175.125 460.642 175.325 460.642 175.625C460.942 179.425 460.343 185.125 462.543 185.225C464.543 185.325 464.842 182.925 464.842 182.925C464.842 182.925 465.243 184.325 466.743 183.825C468.343 183.225 470.642 178.325 471.342 175.425C471.442 176.725 471.143 177.225 472.043 177.525C473.943 178.125 475.443 172.025 475.943 167.625C476.243 164.825 475.743 164.025 474.943 163.225Z" fill="#F4C2C9"/>
<path d="M464.743 182.825C464.743 182.825 465.742 177.625 466.142 175.525C466.542 173.425 466.442 167.625 466.142 166.525C465.842 165.325 465.142 164.025 465.142 164.025" stroke="#896068" stroke-width="1.8" stroke-miterlimit="10" stroke-linecap="round" stroke-linejoin="round"/>
<path d="M471.342 175.325C471.342 175.325 472.642 169.425 472.642 167.125C472.642 167.125 472.442 164.425 472.142 164.025" stroke="#896068" stroke-width="1.8" stroke-miterlimit="10" stroke-linecap="round" stroke-linejoin="round"/>
<path d="M460.642 176.925C460.642 176.925 460.842 173.125 460.642 171.525C460.442 169.925 458.943 165.125 458.743 165.025" stroke="#896068" stroke-width="1.8" stroke-miterlimit="10" stroke-linecap="round" stroke-linejoin="round"/>
<path d="M340.543 46.325C331.743 46.225 324.442 53.025 323.842 61.725C323.542 65.625 323.143 71.025 322.443 75.525C321.243 83.325 322.443 94.925 334.743 97.725C347.043 100.525 359.043 88.725 361.743 78.525C364.543 68.325 366.743 53.425 352.243 48.525C348.043 47.125 344.043 46.425 340.543 46.325Z" fill="#F4C2C9"/>
<path d="M357.842 73.625C357.842 73.625 355.942 72.025 355.342 65.525C355.242 64.725 354.642 64.025 353.842 63.825C351.642 63.325 347.643 61.025 346.243 51.925C346.243 51.925 340.643 55.925 333.643 57.625C326.843 59.225 322.542 53.025 320.342 49.825C316.442 44.125 316.943 42.725 318.743 40.525C327.643 29.525 343.442 34.125 346.342 35.125C349.242 36.125 359.542 35.325 366.642 42.925C373.742 50.525 372.143 61.425 370.243 68.125C368.443 74.825 358.842 86.725 358.842 87.625C358.842 88.525 357.842 73.625 357.842 73.625Z" fill="#22272E"/>
<path d="M356.443 74.125C356.443 74.125 358.342 69.125 362.642 69.825C366.042 70.325 366.743 82.025 358.443 83.725" fill="#F4C2C9"/>
<path d="M330.543 68.725C330.643 69.825 330.243 70.925 329.743 71.925C329.443 72.425 329.143 72.825 328.743 73.325C328.543 73.525 328.442 73.725 328.342 73.825C328.242 74.025 328.143 74.125 328.043 74.325C327.743 74.925 327.843 75.625 328.243 76.425C328.643 77.225 329.343 77.925 330.243 78.625C329.143 78.625 328.043 78.125 327.143 77.325C326.743 76.925 326.343 76.325 326.243 75.625C326.043 74.925 326.142 74.225 326.442 73.525C326.542 73.225 326.742 72.925 326.942 72.625C327.142 72.425 327.443 72.125 327.543 72.025C327.943 71.725 328.243 71.325 328.643 71.025C329.243 70.325 329.843 69.625 330.543 68.725Z" fill="#22272E"/>
<path d="M337.043 85.725C338.943 85.425 341.542 84.425 342.642 81.625" stroke="#22272E" stroke-width="1.8" stroke-miterlimit="10" stroke-linecap="round" stroke-linejoin="round"/>
<path d="M341.043 63.025C340.443 62.325 340.443 60.525 341.643 60.125C342.843 59.625 346.043 60.125 348.143 62.825C350.243 65.425 346.043 63.425 344.843 63.225C343.643 63.025 341.543 63.525 341.043 63.025Z" fill="#22272E"/>
<path d="M329.143 62.125C329.743 62.325 330.343 62.025 330.543 61.425C330.743 60.625 330.743 60.025 330.343 59.525C329.843 58.825 325.743 59.325 325.043 61.225C324.543 62.525 327.143 61.425 328.043 61.725C328.343 61.725 328.743 61.925 329.143 62.125Z" fill="#22272E"/>
<path d="M328.143 68.525C328.243 67.625 327.643 66.825 326.743 66.725C325.843 66.625 325.043 67.225 324.943 68.125V68.525L328.143 68.925V68.525Z" fill="#22272E"/>
<path d="M343.642 70.425C343.742 69.525 343.143 68.725 342.243 68.625C341.343 68.525 340.543 69.125 340.443 70.025V70.325L343.642 70.725V70.425Z" fill="#22272E"/>
<path d="M363.142 74.325C362.842 74.125 362.443 74.025 362.243 74.025C362.043 74.025 361.943 74.225 361.743 74.325L361.642 74.425V74.525C361.642 74.625 361.642 74.625 361.642 74.725C361.642 74.925 361.642 75.225 361.642 75.525C361.642 76.225 361.743 76.925 361.543 77.825C361.443 78.225 361.143 78.725 360.743 79.025C360.343 79.325 359.843 79.325 359.443 79.225C359.743 78.925 360.043 78.725 360.043 78.425C360.143 78.225 360.143 77.925 360.043 77.625C359.943 77.125 359.843 76.425 359.743 75.625C359.743 75.225 359.742 74.825 359.842 74.325C359.942 74.125 360.043 73.825 360.243 73.525C360.343 73.425 360.442 73.325 360.642 73.225L360.943 73.025C361.343 72.825 362.043 72.725 362.443 73.025C363.043 73.525 363.142 73.925 363.142 74.325Z" fill="#22272E"/>
<path d="M328.752 69.8934C329.212 65.5548 326.869 61.7498 323.519 61.3948C320.168 61.0397 317.08 64.2689 316.62 68.6076C316.16 72.9462 318.503 76.7512 321.853 77.1063C325.203 77.4614 328.292 74.2321 328.752 69.8934Z" stroke="#22272E" stroke-width="1.8" stroke-miterlimit="10" stroke-linecap="round" stroke-linejoin="round"/>
<path d="M350.768 71.6277C351.228 67.2891 348.485 63.4416 344.64 63.0342C340.796 62.6267 337.307 65.8135 336.847 70.1521C336.387 74.4908 339.13 78.3382 342.975 78.7457C346.819 79.1532 350.308 75.9664 350.768 71.6277Z" stroke="#22272E" stroke-width="1.8" stroke-miterlimit="10" stroke-linecap="round" stroke-linejoin="round"/>
<path d="M328.842 68.825C328.842 68.825 330.843 67.225 336.943 69.725" stroke="#22272E" stroke-width="1.8" stroke-miterlimit="10" stroke-linecap="round" stroke-linejoin="round"/>
<path d="M350.743 70.925L357.842 71.925" stroke="#22272E" stroke-width="1.8" stroke-miterlimit="10" stroke-linecap="round" stroke-linejoin="round"/>
<path d="M243.942 230.025C242.742 230.025 247.943 217.825 253.243 219.525C258.543 221.125 250.642 230.025 243.942 230.025Z" fill="#3B82F6"/>
<path d="M244.543 231.625C244.543 231.625 238.743 224.425 233.043 226.025C227.343 227.725 234.443 235.925 244.543 231.625Z" fill="#3B82F6"/>
<path d="M242.843 224.425C242.843 224.425 251.443 209.625 247.743 206.125C241.343 199.825 233.243 218.425 242.843 224.425Z" fill="#3B82F6"/>
<path d="M257.243 258.025L244.643 260.825C241.143 261.625 237.543 259.725 236.143 256.425L230.443 242.625C229.343 239.925 230.943 236.925 233.743 236.325L256.543 231.225C259.343 230.625 262.043 232.625 262.243 235.525L262.943 250.425C263.143 254.025 260.743 257.225 257.243 258.025Z" fill="#22272E"/>
<path d="M245.342 234.725C245.342 234.725 241.342 222.625 242.842 216.925" stroke="#22272E" stroke-width="1.8" stroke-miterlimit="10" stroke-linecap="round" stroke-linejoin="round"/>
</g>
</svg>
